{
	"asset":{
		"generator":"Khronos glTF Blender I/O v4.3.47",
		"version":"2.0"
	},
	"extensionsUsed":[
		"KHR_materials_clearcoat",
		"KHR_materials_specular",
		"KHR_materials_ior"
	],
	"scene":0,
	"scenes":[
		{
			"name":"Scene",
			"nodes":[
				52
			]
		}
	],
	"nodes":[
		{
			"mesh":0,
			"name":"Base",
			"translation":[
				0,
				-0.06503486633300781,
				126.49175262451172
			]
		},
		{
			"mesh":1,
			"name":"Cover",
			"translation":[
				-3.528594970703125e-05,
				0.03244209289550781,
				-67.8358154296875
			]
		},
		{
			"mesh":2,
			"name":"A for cassete",
			"rotation":[
				0.7071068286895752,
				0,
				0,
				0.7071068286895752
			],
			"scale":[
				0.4000000059604645,
				1,
				0.3999999761581421
			],
			"translation":[
				0.5027801990509033,
				-7.604407787322998,
				1.2403919696807861
			]
		},
		{
			"mesh":3,
			"name":"b for cassette",
			"rotation":[
				-0.006170627195388079,
				0.7070798873901367,
				-0.7070798873901367,
				0.0061705708503723145
			],
			"scale":[
				0.40000006556510925,
				1,
				0.4000000059604645
			],
			"translation":[
				5.478347301483154,
				-7.596268177032471,
				0.8406915664672852
			]
		},
		{
			"mesh":4,
			"name":"denis-webclip",
			"rotation":[
				0.7071068286895752,
				0,
				0,
				0.7071068286895752
			],
			"scale":[
				3,
				1,
				3
			],
			"translation":[
				2.9987096786499023,
				-5.687683582305908,
				1.2401914596557617
			]
		},
		{
			"mesh":5,
			"name":"denis-webclip.001",
			"rotation":[
				0.7071068286895752,
				0,
				0,
				0.7071068286895752
			],
			"scale":[
				3,
				1,
				3
			],
			"translation":[
				2.983586549758911,
				-5.7038893699646,
				0.8406917452812195
			]
		},
		{
			"mesh":6,
			"name":"NOHOLE",
			"rotation":[
				0,
				-0.7071068286895752,
				0.7071068286895752,
				4.28053965606523e-08
			],
			"scale":[
				0.4000000059604645,
				1,
				0.3999999761581421
			],
			"translation":[
				0.5169194340705872,
				-7.603273868560791,
				0.8406915068626404
			]
		},
		{
			"mesh":7,
			"name":"NOHOLE.001",
			"rotation":[
				0,
				-0.7071068286895752,
				0.7071068286895752,
				4.28053965606523e-08
			],
			"scale":[
				0.4000000059604645,
				1,
				0.3999999761581421
			],
			"translation":[
				5.488606929779053,
				-7.609636306762695,
				1.2406915426254272
			]
		},
		{
			"children":[
				2,
				3,
				4,
				5,
				6,
				7
			],
			"name":"decals",
			"rotation":[
				-0.70710688829422,
				0,
				0,
				0.7071066498756409
			],
			"scale":[
				100,
				100,
				100
			],
			"translation":[
				-300.1324768066406,
				-100.71923828125,
				-702.461669921875
			]
		},
		{
			"mesh":8,
			"name":"A",
			"translation":[
				41.26899719238281,
				-2.906352996826172,
				26.727941513061523
			]
		},
		{
			"mesh":9,
			"name":"Cover_2",
			"translation":[
				41.26899337768555,
				-2.9063453674316406,
				26.72794532775879
			]
		},
		{
			"mesh":10,
			"name":"Cover_Holder",
			"translation":[
				41.2690544128418,
				-2.906352996826172,
				26.727916717529297
			]
		},
		{
			"mesh":11,
			"name":"Glass",
			"translation":[
				41.2690544128418,
				-2.906352996826172,
				26.727916717529297
			]
		},
		{
			"mesh":12,
			"name":"Holder_Glass",
			"translation":[
				41.2690544128418,
				-2.906352996826172,
				26.727916717529297
			]
		},
		{
			"mesh":13,
			"name":"Push_1",
			"rotation":[
				0.612247109413147,
				-0.5184817910194397,
				0.5694869756698608,
				0.1789264678955078
			],
			"scale":[
				99.99999237060547,
				100.00000762939453,
				100.00000762939453
			],
			"translation":[
				495.4876403808594,
				460.3010559082031,
				-204.71861267089844
			]
		},
		{
			"children":[
				9,
				10,
				11,
				12,
				13,
				14
			],
			"name":"A_Side",
			"translation":[
				-41.26911544799805,
				-14.470680236816406,
				3.4332275390625e-05
			]
		},
		{
			"mesh":14,
			"name":"B",
			"translation":[
				-41.26914978027344,
				2.8817977905273438,
				26.72795867919922
			]
		},
		{
			"mesh":15,
			"name":"Cover_3",
			"translation":[
				-41.26910400390625,
				2.8817901611328125,
				26.72796630859375
			]
		},
		{
			"mesh":16,
			"name":"Cover_Holder_2",
			"translation":[
				-41.2691650390625,
				2.881816864013672,
				26.72796630859375
			]
		},
		{
			"mesh":17,
			"name":"Glass_2",
			"translation":[
				-41.26914978027344,
				2.8817977905273438,
				26.72795867919922
			]
		},
		{
			"mesh":18,
			"name":"Holder_Glass_2",
			"translation":[
				-41.26914978027344,
				2.8817977905273438,
				26.72795867919922
			]
		},
		{
			"mesh":19,
			"name":"Push_2",
			"rotation":[
				0.612247109413147,
				-0.5184817910194397,
				0.5694869756698608,
				0.1789264678955078
			],
			"scale":[
				99.99999237060547,
				100.00000762939453,
				100.00000762939453
			],
			"translation":[
				412.9494934082031,
				431.3595886230469,
				-204.71853637695312
			]
		},
		{
			"children":[
				16,
				17,
				18,
				19,
				20,
				21
			],
			"name":"B_Side",
			"translation":[
				41.269073486328125,
				14.470733642578125,
				-2.288818359375e-05
			]
		},
		{
			"children":[
				15,
				22
			],
			"name":"Body",
			"translation":[
				41.26901626586914,
				14.470767974853516,
				-6.29425048828125e-05
			]
		},
		{
			"children":[
				23
			],
			"name":"SS_Body",
			"rotation":[
				0,
				0,
				-1,
				2.421438871635928e-08
			],
			"translation":[
				41.36207962036133,
				17.870704650878906,
				-54.72402572631836
			]
		},
		{
			"mesh":20,
			"name":"Pressure",
			"translation":[
				-8.106231689453125e-06,
				-2.86102294921875e-06,
				2.624330997467041
			]
		},
		{
			"mesh":21,
			"name":"Shield",
			"rotation":[
				0,
				0,
				-1,
				3.725290298461914e-08
			],
			"translation":[
				1.1920928955078125e-05,
				8.58306884765625e-06,
				-2.6244444847106934
			]
		},
		{
			"children":[
				25,
				26
			],
			"name":"Pressure_Tape",
			"translation":[
				-0.12362861633300781,
				-0.015385627746582031,
				60.47941207885742
			]
		},
		{
			"mesh":22,
			"name":"Roller_Left",
			"translation":[
				-234.95013427734375,
				3.814697265625e-05,
				-6.866455078125e-05
			]
		},
		{
			"mesh":23,
			"name":"Roller_Right",
			"translation":[
				234.95005798339844,
				3.0517578125e-05,
				-9.918212890625e-05
			]
		},
		{
			"children":[
				28,
				29
			],
			"name":"Rollers_Tape",
			"translation":[
				-0.3544955253601074,
				-0.0016498565673828125,
				46.7326774597168
			]
		},
		{
			"mesh":24,
			"name":"Tape_2",
			"translation":[
				1.7828731536865234,
				2.288818359375e-05,
				31.376705169677734
			]
		},
		{
			"mesh":25,
			"name":"Pin_Left",
			"translation":[
				44.26425552368164,
				3.0517578125e-05,
				-3.719329833984375e-05
			]
		},
		{
			"children":[
				32
			],
			"mesh":26,
			"name":"Roller_Left_2",
			"translation":[
				5.238478183746338,
				0.24250006675720215,
				0.179803729057312
			]
		},
		{
			"children":[
				33
			],
			"mesh":27,
			"name":"Tape_Roller_Left",
			"translation":[
				-126.4198989868164,
				2.5391578674316406e-05,
				-15.688373565673828
			]
		},
		{
			"mesh":28,
			"name":"Pin_Right",
			"translation":[
				-44.534000396728516,
				9.1552734375e-05,
				-1.1444091796875e-05
			]
		},
		{
			"children":[
				35
			],
			"mesh":29,
			"name":"Roller_Right_2",
			"translation":[
				-4.943553924560547,
				0.24249267578125,
				0.17973709106445312
			]
		},
		{
			"children":[
				36
			],
			"mesh":30,
			"name":"Tape_Roller_Right",
			"translation":[
				124.6368637084961,
				1.52587890625e-05,
				-15.68838119506836
			]
		},
		{
			"children":[
				31,
				34,
				37
			],
			"name":"Tape",
			"translation":[
				0.47809600830078125,
				0.017040252685546875,
				-107.21220397949219
			]
		},
		{
			"children":[
				27,
				30,
				38
			],
			"name":"Inside",
			"translation":[
				0,
				1.1444091796875e-05,
				-2.384185791015625e-05
			]
		},
		{
			"children":[
				39
			],
			"name":"SS_Inside",
			"rotation":[
				0,
				0,
				-1,
				2.421438871635928e-08
			],
			"translation":[
				-0.27961063385009766,
				3.225391387939453,
				94.93445587158203
			]
		},
		{
			"mesh":31,
			"name":"Screw_B_L",
			"translation":[
				283.8725891113281,
				145.47789001464844,
				1.9073486328125e-05
			]
		},
		{
			"mesh":32,
			"name":"Screw_B_R",
			"translation":[
				-283.8576965332031,
				145.4779052734375,
				0
			]
		},
		{
			"mesh":33,
			"name":"Screw_M",
			"translation":[
				0.0005774497985839844,
				101.73485565185547,
				1.239776611328125e-05
			]
		},
		{
			"mesh":34,
			"name":"Screw_T_L",
			"translation":[
				284.606689453125,
				-196.34536743164062,
				1.52587890625e-05
			]
		},
		{
			"mesh":35,
			"name":"Screw_T_R",
			"translation":[
				-284.622314453125,
				-196.34539794921875,
				2.6702880859375e-05
			]
		},
		{
			"children":[
				41,
				42,
				43,
				44,
				45
			],
			"name":"Screws",
			"translation":[
				-3.814697265625e-05,
				-1.33514404296875e-05,
				1.52587890625e-05
			]
		},
		{
			"children":[
				46
			],
			"name":"SS_Screws",
			"rotation":[
				0,
				-0.7071066498756409,
				-0.70710688829422,
				3.161013495400766e-08
			],
			"translation":[
				0.09366607666015625,
				-10.025314331054688,
				14.51369857788086
			]
		},
		{
			"children":[
				8,
				24,
				40,
				47
			],
			"name":"Cassette_Tape",
			"translation":[
				59.5120849609375,
				161.23812866210938,
				260.84222412109375
			]
		},
		{
			"children":[
				48
			],
			"mesh":36,
			"name":"Top",
			"translation":[
				-3.528594970703125e-05,
				0.032444000244140625,
				-63.24580383300781
			]
		},
		{
			"children":[
				0,
				1,
				49
			],
			"name":"Box_2",
			"translation":[
				5.245208740234375e-06,
				-4.100799560546875e-05,
				2.8133392333984375e-05
			]
		},
		{
			"children":[
				50
			],
			"name":"SS_Box",
			"translation":[
				5.245208740234375e-06,
				-4.100799560546875e-05,
				2.8133392333984375e-05
			]
		},
		{
			"children":[
				51
			],
			"name":"Box",
			"rotation":[
				0.5184817910194397,
				0.612247109413147,
				0.17892645299434662,
				0.5694870352745056
			],
			"scale":[
				0.009999999776482582,
				0.009999999776482582,
				0.009999999776482582
			],
			"translation":[
				2.49314022064209,
				4.199709892272949,
				0.07904326915740967
			]
		}
	],
	"materials":[
		{
			"doubleSided":true,
			"name":"clear"
		},
		{
			"doubleSided":true,
			"name":"J card",
			"pbrMetallicRoughness":{
				"baseColorTexture":{
					"index":0
				},
				"metallicFactor":0,
				"roughnessFactor":0.5
			}
		},
		{
			"alphaMode":"BLEND",
			"doubleSided":true,
			"name":"A for cassete",
			"pbrMetallicRoughness":{
				"baseColorTexture":{
					"index":1
				},
				"metallicFactor":0,
				"roughnessFactor":0.5
			}
		},
		{
			"alphaMode":"BLEND",
			"doubleSided":true,
			"name":"b for cassette",
			"pbrMetallicRoughness":{
				"baseColorTexture":{
					"index":2
				},
				"metallicFactor":0,
				"roughnessFactor":0.5
			}
		},
		{
			"alphaMode":"BLEND",
			"doubleSided":true,
			"name":"denis-webclip",
			"pbrMetallicRoughness":{
				"baseColorTexture":{
					"index":3
				},
				"metallicFactor":0,
				"roughnessFactor":0.5
			}
		},
		{
			"alphaMode":"BLEND",
			"doubleSided":true,
			"name":"denis-webclip.001",
			"pbrMetallicRoughness":{
				"baseColorTexture":{
					"index":4
				},
				"metallicFactor":0,
				"roughnessFactor":0.5
			}
		},
		{
			"alphaMode":"BLEND",
			"doubleSided":true,
			"name":"NOHOLE",
			"pbrMetallicRoughness":{
				"baseColorTexture":{
					"index":5
				},
				"metallicFactor":0,
				"roughnessFactor":0.5
			}
		},
		{
			"alphaMode":"BLEND",
			"doubleSided":true,
			"name":"NOHOLE.002",
			"pbrMetallicRoughness":{
				"baseColorTexture":{
					"index":6
				},
				"metallicFactor":0,
				"roughnessFactor":0.5
			}
		},
		{
			"doubleSided":true,
			"name":"Material.001",
			"pbrMetallicRoughness":{
				"baseColorFactor":[
					0.800000011920929,
					0.800000011920929,
					0.800000011920929,
					1
				],
				"metallicFactor":0,
				"roughnessFactor":0.5
			}
		},
		{
			"doubleSided":true,
			"extensions":{
				"KHR_materials_clearcoat":{
					"clearcoatFactor":0.20129869878292084
				},
				"KHR_materials_specular":{
					"specularFactor":0
				},
				"KHR_materials_ior":{
					"ior":1.4500000476837158
				}
			},
			"name":"Material",
			"pbrMetallicRoughness":{
				"baseColorFactor":[
					0.800000011920929,
					0.800000011920929,
					0.9778096675872803,
					1
				],
				"metallicFactor":0,
				"roughnessFactor":0.8051947951316833
			}
		},
		{
			"doubleSided":true,
			"extensions":{
				"KHR_materials_specular":{
					"specularColorFactor":[
						2.0,
						2.0,
						2.0
					]
				},
				"KHR_materials_ior":{
					"ior":1.4500000476837158
				}
			},
			"name":"tape",
			"pbrMetallicRoughness":{
				"baseColorFactor":[
					0,
					0,
					0,
					1
				],
				"metallicFactor":0,
				"roughnessFactor":0
			}
		},
		{
			"doubleSided":true,
			"extensions":{
				"KHR_materials_specular":{
					"specularColorFactor":[
						2.0,
						2.0,
						2.0
					]
				},
				"KHR_materials_ior":{
					"ior":1.4500000476837158
				}
			},
			"name":"black metal",
			"pbrMetallicRoughness":{
				"baseColorFactor":[
					0,
					0,
					0,
					1
				],
				"metallicFactor":0,
				"roughnessFactor":0
			}
		}
	],
	"meshes":[
		{
			"name":"Mesh",
			"primitives":[
				{
					"attributes":{
						"POSITION":0,
						"NORMAL":1,
						"TEXCOORD_0":2
					},
					"indices":3,
					"material":0
				}
			]
		},
		{
			"name":"Mesh.002",
			"primitives":[
				{
					"attributes":{
						"POSITION":4,
						"NORMAL":5,
						"TEXCOORD_0":6
					},
					"indices":7,
					"material":1
				}
			]
		},
		{
			"name":"A for cassete.002",
			"primitives":[
				{
					"attributes":{
						"POSITION":8,
						"NORMAL":9,
						"TEXCOORD_0":10
					},
					"indices":11,
					"material":2
				}
			]
		},
		{
			"name":"b for cassette.001",
			"primitives":[
				{
					"attributes":{
						"POSITION":12,
						"NORMAL":13,
						"TEXCOORD_0":14
					},
					"indices":11,
					"material":3
				}
			]
		},
		{
			"name":"denis-webclip",
			"primitives":[
				{
					"attributes":{
						"POSITION":15,
						"NORMAL":16,
						"TEXCOORD_0":17
					},
					"indices":11,
					"material":4
				}
			]
		},
		{
			"name":"denis-webclip.001",
			"primitives":[
				{
					"attributes":{
						"POSITION":18,
						"NORMAL":19,
						"TEXCOORD_0":20
					},
					"indices":11,
					"material":5
				}
			]
		},
		{
			"name":"NOHOLE.002",
			"primitives":[
				{
					"attributes":{
						"POSITION":21,
						"NORMAL":22,
						"TEXCOORD_0":23
					},
					"indices":11,
					"material":6
				}
			]
		},
		{
			"name":"NOHOLE.003",
			"primitives":[
				{
					"attributes":{
						"POSITION":24,
						"NORMAL":25,
						"TEXCOORD_0":26
					},
					"indices":11,
					"material":7
				}
			]
		},
		{
			"name":"Mesh.004",
			"primitives":[
				{
					"attributes":{
						"POSITION":27,
						"NORMAL":28,
						"TEXCOORD_0":29
					},
					"indices":30,
					"material":0
				}
			]
		},
		{
			"name":"Mesh.005",
			"primitives":[
				{
					"attributes":{
						"POSITION":31,
						"NORMAL":32,
						"TEXCOORD_0":33
					},
					"indices":34,
					"material":0
				}
			]
		},
		{
			"name":"Mesh.006",
			"primitives":[
				{
					"attributes":{
						"POSITION":35,
						"NORMAL":36,
						"TEXCOORD_0":37
					},
					"indices":38,
					"material":0
				}
			]
		},
		{
			"name":"Mesh.008",
			"primitives":[
				{
					"attributes":{
						"POSITION":39,
						"NORMAL":40,
						"TEXCOORD_0":41
					},
					"indices":42,
					"material":0
				}
			]
		},
		{
			"name":"Mesh.007",
			"primitives":[
				{
					"attributes":{
						"POSITION":43,
						"NORMAL":44,
						"TEXCOORD_0":45
					},
					"indices":46,
					"material":0
				}
			]
		},
		{
			"name":"Mesh.003",
			"primitives":[
				{
					"attributes":{
						"POSITION":47,
						"NORMAL":48,
						"TEXCOORD_0":49
					},
					"indices":50,
					"material":0
				}
			]
		},
		{
			"name":"Mesh.010",
			"primitives":[
				{
					"attributes":{
						"POSITION":51,
						"NORMAL":52,
						"TEXCOORD_0":53
					},
					"indices":54,
					"material":0
				}
			]
		},
		{
			"name":"Mesh.011",
			"primitives":[
				{
					"attributes":{
						"POSITION":55,
						"NORMAL":56,
						"TEXCOORD_0":57
					},
					"indices":34,
					"material":0
				}
			]
		},
		{
			"name":"Mesh.012",
			"primitives":[
				{
					"attributes":{
						"POSITION":58,
						"NORMAL":59,
						"TEXCOORD_0":60
					},
					"indices":38,
					"material":0
				}
			]
		},
		{
			"name":"Mesh.014",
			"primitives":[
				{
					"attributes":{
						"POSITION":61,
						"NORMAL":62,
						"TEXCOORD_0":63
					},
					"indices":64,
					"material":0
				}
			]
		},
		{
			"name":"Mesh.013",
			"primitives":[
				{
					"attributes":{
						"POSITION":65,
						"NORMAL":66,
						"TEXCOORD_0":67
					},
					"indices":68,
					"material":0
				}
			]
		},
		{
			"name":"Mesh.009",
			"primitives":[
				{
					"attributes":{
						"POSITION":69,
						"NORMAL":70,
						"TEXCOORD_0":71
					},
					"indices":72,
					"material":0
				}
			]
		},
		{
			"name":"Mesh.016",
			"primitives":[
				{
					"attributes":{
						"POSITION":73,
						"NORMAL":74,
						"TEXCOORD_0":75
					},
					"indices":76,
					"material":8
				}
			]
		},
		{
			"name":"Mesh.015",
			"primitives":[
				{
					"attributes":{
						"POSITION":77,
						"NORMAL":78,
						"TEXCOORD_0":79
					},
					"indices":80,
					"material":0
				}
			]
		},
		{
			"name":"Mesh.018",
			"primitives":[
				{
					"attributes":{
						"POSITION":81,
						"NORMAL":82,
						"TEXCOORD_0":83
					},
					"indices":84,
					"material":9
				}
			]
		},
		{
			"name":"Mesh.017",
			"primitives":[
				{
					"attributes":{
						"POSITION":85,
						"NORMAL":86,
						"TEXCOORD_0":87
					},
					"indices":88,
					"material":9
				}
			]
		},
		{
			"name":"Mesh.025",
			"primitives":[
				{
					"attributes":{
						"POSITION":89,
						"NORMAL":90,
						"TEXCOORD_0":91
					},
					"indices":92,
					"material":10
				}
			]
		},
		{
			"name":"Mesh.024",
			"primitives":[
				{
					"attributes":{
						"POSITION":93,
						"NORMAL":94,
						"TEXCOORD_0":95
					},
					"indices":96
				}
			]
		},
		{
			"name":"Mesh.023",
			"primitives":[
				{
					"attributes":{
						"POSITION":97,
						"NORMAL":98,
						"TEXCOORD_0":99
					},
					"indices":100,
					"material":9
				}
			]
		},
		{
			"name":"Mesh.022",
			"primitives":[
				{
					"attributes":{
						"POSITION":101,
						"NORMAL":102,
						"TEXCOORD_0":103
					},
					"indices":104,
					"material":10
				}
			]
		},
		{
			"name":"Mesh.021",
			"primitives":[
				{
					"attributes":{
						"POSITION":105,
						"NORMAL":106,
						"TEXCOORD_0":107
					},
					"indices":96
				}
			]
		},
		{
			"name":"Mesh.020",
			"primitives":[
				{
					"attributes":{
						"POSITION":108,
						"NORMAL":109,
						"TEXCOORD_0":110
					},
					"indices":111,
					"material":9
				}
			]
		},
		{
			"name":"Mesh.019",
			"primitives":[
				{
					"attributes":{
						"POSITION":112,
						"NORMAL":113,
						"TEXCOORD_0":114
					},
					"indices":115,
					"material":10
				}
			]
		},
		{
			"name":"Mesh.029",
			"primitives":[
				{
					"attributes":{
						"POSITION":116,
						"NORMAL":117,
						"TEXCOORD_0":118
					},
					"indices":119,
					"material":11
				}
			]
		},
		{
			"name":"Mesh.028",
			"primitives":[
				{
					"attributes":{
						"POSITION":120,
						"NORMAL":121,
						"TEXCOORD_0":122
					},
					"indices":119,
					"material":11
				}
			]
		},
		{
			"name":"Mesh.030",
			"primitives":[
				{
					"attributes":{
						"POSITION":123,
						"NORMAL":124,
						"TEXCOORD_0":125
					},
					"indices":119,
					"material":11
				}
			]
		},
		{
			"name":"Mesh.026",
			"primitives":[
				{
					"attributes":{
						"POSITION":126,
						"NORMAL":127,
						"TEXCOORD_0":128
					},
					"indices":119,
					"material":11
				}
			]
		},
		{
			"name":"Mesh.027",
			"primitives":[
				{
					"attributes":{
						"POSITION":129,
						"NORMAL":130,
						"TEXCOORD_0":131
					},
					"indices":119,
					"material":11
				}
			]
		},
		{
			"name":"Mesh.001",
			"primitives":[
				{
					"attributes":{
						"POSITION":132,
						"NORMAL":133,
						"TEXCOORD_0":134
					},
					"indices":135,
					"material":0
				}
			]
		}
	],
	"textures":[
		{
			"sampler":0,
			"source":0
		},
		{
			"sampler":0,
			"source":1
		},
		{
			"sampler":0,
			"source":2
		},
		{
			"sampler":0,
			"source":3
		},
		{
			"sampler":0,
			"source":3
		},
		{
			"sampler":0,
			"source":4
		},
		{
			"sampler":0,
			"source":4
		}
	],
	"images":[
		{
			"mimeType":"image/png",
			"name":"BOX_Cover",
			"uri":"BOX_Cover.png"
		},
		{
			"mimeType":"image/png",
			"name":"A for cassete",
			"uri":"A%20for%20cassete.png"
		},
		{
			"mimeType":"image/png",
			"name":"b for cassette",
			"uri":"b%20for%20cassette.png"
		},
		{
			"mimeType":"image/png",
			"name":"denis-webclip",
			"uri":"denis-webclip.png"
		},
		{
			"mimeType":"image/png",
			"name":"NOHOLE",
			"uri":"NOHOLE.png"
		}
	],
	"accessors":[
		{
			"bufferView":0,
			"componentType":5126,
			"count":6980,
			"max":[
				333.8673095703125,
				52.192420959472656,
				182.19908142089844
			],
			"min":[
				-333.8673095703125,
				-52.192420959472656,
				-234.38479614257812
			],
			"type":"VEC3"
		},
		{
			"bufferView":1,
			"componentType":5126,
			"count":6980,
			"type":"VEC3"
		},
		{
			"bufferView":2,
			"componentType":5126,
			"count":6980,
			"type":"VEC2"
		},
		{
			"bufferView":3,
			"componentType":5123,
			"count":26436,
			"type":"SCALAR"
		},
		{
			"bufferView":4,
			"componentType":5126,
			"count":738,
			"max":[
				312.9307556152344,
				42.28814697265625,
				361.9366455078125
			],
			"min":[
				-312.9293212890625,
				-42.29035568237305,
				-33.831233978271484
			],
			"type":"VEC3"
		},
		{
			"bufferView":5,
			"componentType":5126,
			"count":738,
			"type":"VEC3"
		},
		{
			"bufferView":6,
			"componentType":5126,
			"count":738,
			"type":"VEC2"
		},
		{
			"bufferView":7,
			"componentType":5123,
			"count":2400,
			"type":"SCALAR"
		},
		{
			"bufferView":8,
			"componentType":5126,
			"count":4,
			"max":[
				0.5,
				0,
				0.5
			],
			"min":[
				-0.5,
				0,
				-0.5
			],
			"type":"VEC3"
		},
		{
			"bufferView":9,
			"componentType":5126,
			"count":4,
			"type":"VEC3"
		},
		{
			"bufferView":10,
			"componentType":5126,
			"count":4,
			"type":"VEC2"
		},
		{
			"bufferView":11,
			"componentType":5123,
			"count":6,
			"type":"SCALAR"
		},
		{
			"bufferView":12,
			"componentType":5126,
			"count":4,
			"max":[
				0.5,
				0,
				0.5
			],
			"min":[
				-0.5,
				0,
				-0.5
			],
			"type":"VEC3"
		},
		{
			"bufferView":13,
			"componentType":5126,
			"count":4,
			"type":"VEC3"
		},
		{
			"bufferView":14,
			"componentType":5126,
			"count":4,
			"type":"VEC2"
		},
		{
			"bufferView":15,
			"componentType":5126,
			"count":4,
			"max":[
				0.5,
				0,
				0.5
			],
			"min":[
				-0.5,
				0,
				-0.5
			],
			"type":"VEC3"
		},
		{
			"bufferView":16,
			"componentType":5126,
			"count":4,
			"type":"VEC3"
		},
		{
			"bufferView":17,
			"componentType":5126,
			"count":4,
			"type":"VEC2"
		},
		{
			"bufferView":18,
			"componentType":5126,
			"count":4,
			"max":[
				0.5,
				0,
				0.5
			],
			"min":[
				-0.5,
				0,
				-0.5
			],
			"type":"VEC3"
		},
		{
			"bufferView":19,
			"componentType":5126,
			"count":4,
			"type":"VEC3"
		},
		{
			"bufferView":20,
			"componentType":5126,
			"count":4,
			"type":"VEC2"
		},
		{
			"bufferView":21,
			"componentType":5126,
			"count":4,
			"max":[
				0.5,
				0,
				0.5
			],
			"min":[
				-0.5,
				0,
				-0.5
			],
			"type":"VEC3"
		},
		{
			"bufferView":22,
			"componentType":5126,
			"count":4,
			"type":"VEC3"
		},
		{
			"bufferView":23,
			"componentType":5126,
			"count":4,
			"type":"VEC2"
		},
		{
			"bufferView":24,
			"componentType":5126,
			"count":4,
			"max":[
				0.5,
				0,
				0.5
			],
			"min":[
				-0.5,
				0,
				-0.5
			],
			"type":"VEC3"
		},
		{
			"bufferView":25,
			"componentType":5126,
			"count":4,
			"type":"VEC3"
		},
		{
			"bufferView":26,
			"componentType":5126,
			"count":4,
			"type":"VEC2"
		},
		{
			"bufferView":27,
			"componentType":5126,
			"count":20023,
			"max":[
				311.016845703125,
				30.048898696899414,
				208.38265991210938
			],
			"min":[
				-311.016845703125,
				-11.070328712463379,
				-175.05897521972656
			],
			"type":"VEC3"
		},
		{
			"bufferView":28,
			"componentType":5126,
			"count":20023,
			"type":"VEC3"
		},
		{
			"bufferView":29,
			"componentType":5126,
			"count":20023,
			"type":"VEC2"
		},
		{
			"bufferView":30,
			"componentType":5123,
			"count":68976,
			"type":"SCALAR"
		},
		{
			"bufferView":31,
			"componentType":5126,
			"count":254,
			"max":[
				271.4294128417969,
				-2.4639999866485596,
				108.60845947265625
			],
			"min":[
				-271.42919921875,
				-2.4639999866485596,
				-148.4029998779297
			],
			"type":"VEC3"
		},
		{
			"bufferView":32,
			"componentType":5126,
			"count":254,
			"type":"VEC3"
		},
		{
			"bufferView":33,
			"componentType":5126,
			"count":254,
			"type":"VEC2"
		},
		{
			"bufferView":34,
			"componentType":5123,
			"count":1290,
			"type":"SCALAR"
		},
		{
			"bufferView":35,
			"componentType":5126,
			"count":456,
			"max":[
				274.4293212890625,
				-2.4636402130126953,
				109.80845642089844
			],
			"min":[
				-274.4293212890625,
				-4.163640022277832,
				-151.40249633789062
			],
			"type":"VEC3"
		},
		{
			"bufferView":36,
			"componentType":5126,
			"count":456,
			"type":"VEC3"
		},
		{
			"bufferView":37,
			"componentType":5126,
			"count":456,
			"type":"VEC2"
		},
		{
			"bufferView":38,
			"componentType":5123,
			"count":1344,
			"type":"SCALAR"
		},
		{
			"bufferView":39,
			"componentType":5126,
			"count":234,
			"max":[
				71.00321960449219,
				5.381143093109131,
				39.91265106201172
			],
			"min":[
				-71.00321960449219,
				-3.799744129180908,
				-32.341060638427734
			],
			"type":"VEC3"
		},
		{
			"bufferView":40,
			"componentType":5126,
			"count":234,
			"type":"VEC3"
		},
		{
			"bufferView":41,
			"componentType":5126,
			"count":234,
			"type":"VEC2"
		},
		{
			"bufferView":42,
			"componentType":5123,
			"count":672,
			"type":"SCALAR"
		},
		{
			"bufferView":43,
			"componentType":5126,
			"count":1132,
			"max":[
				177.30502319335938,
				5.3811774253845215,
				52.23197937011719
			],
			"min":[
				-177.30502319335938,
				-4.163534164428711,
				-51.533206939697266
			],
			"type":"VEC3"
		},
		{
			"bufferView":44,
			"componentType":5126,
			"count":1132,
			"type":"VEC3"
		},
		{
			"bufferView":45,
			"componentType":5126,
			"count":1132,
			"type":"VEC2"
		},
		{
			"bufferView":46,
			"componentType":5123,
			"count":3432,
			"type":"SCALAR"
		},
		{
			"bufferView":47,
			"componentType":5126,
			"count":448,
			"max":[
				23.31561279296875,
				12.356361389160156,
				18.163265228271484
			],
			"min":[
				-17.061403274536133,
				-12.356361389160156,
				-14.691035270690918
			],
			"type":"VEC3"
		},
		{
			"bufferView":48,
			"componentType":5126,
			"count":448,
			"type":"VEC3"
		},
		{
			"bufferView":49,
			"componentType":5126,
			"count":448,
			"type":"VEC2"
		},
		{
			"bufferView":50,
			"componentType":5123,
			"count":1488,
			"type":"SCALAR"
		},
		{
			"bufferView":51,
			"componentType":5126,
			"count":19202,
			"max":[
				311.01690673828125,
				11.22525691986084,
				208.38265991210938
			],
			"min":[
				-311.01690673828125,
				-17.25536346435547,
				-175.05897521972656
			],
			"type":"VEC3"
		},
		{
			"bufferView":52,
			"componentType":5126,
			"count":19202,
			"type":"VEC3"
		},
		{
			"bufferView":53,
			"componentType":5126,
			"count":19202,
			"type":"VEC2"
		},
		{
			"bufferView":54,
			"componentType":5123,
			"count":66696,
			"type":"SCALAR"
		},
		{
			"bufferView":55,
			"componentType":5126,
			"count":254,
			"max":[
				271.42919921875,
				2.6183700561523438,
				108.60845947265625
			],
			"min":[
				-271.4294128417969,
				2.6183700561523438,
				-148.4029998779297
			],
			"type":"VEC3"
		},
		{
			"bufferView":56,
			"componentType":5126,
			"count":254,
			"type":"VEC3"
		},
		{
			"bufferView":57,
			"componentType":5126,
			"count":254,
			"type":"VEC2"
		},
		{
			"bufferView":58,
			"componentType":5126,
			"count":456,
			"max":[
				274.4293212890625,
				4.318010330200195,
				109.80845642089844
			],
			"min":[
				-274.4293212890625,
				2.6180102825164795,
				-151.40249633789062
			],
			"type":"VEC3"
		},
		{
			"bufferView":59,
			"componentType":5126,
			"count":456,
			"type":"VEC3"
		},
		{
			"bufferView":60,
			"componentType":5126,
			"count":456,
			"type":"VEC2"
		},
		{
			"bufferView":61,
			"componentType":5126,
			"count":234,
			"max":[
				71.00321960449219,
				3.950268507003784,
				39.91265106201172
			],
			"min":[
				-71.00321960449219,
				-5.0382914543151855,
				-32.341060638427734
			],
			"type":"VEC3"
		},
		{
			"bufferView":62,
			"componentType":5126,
			"count":234,
			"type":"VEC3"
		},
		{
			"bufferView":63,
			"componentType":5126,
			"count":234,
			"type":"VEC2"
		},
		{
			"bufferView":64,
			"componentType":5123,
			"count":672,
			"type":"SCALAR"
		},
		{
			"bufferView":65,
			"componentType":5126,
			"count":1132,
			"max":[
				177.30502319335938,
				4.31874418258667,
				52.23197937011719
			],
			"min":[
				-177.30502319335938,
				-5.033639907836914,
				-51.533206939697266
			],
			"type":"VEC3"
		},
		{
			"bufferView":66,
			"componentType":5126,
			"count":1132,
			"type":"VEC3"
		},
		{
			"bufferView":67,
			"componentType":5126,
			"count":1132,
			"type":"VEC2"
		},
		{
			"bufferView":68,
			"componentType":5123,
			"count":3432,
			"type":"SCALAR"
		},
		{
			"bufferView":69,
			"componentType":5126,
			"count":448,
			"max":[
				17.061420440673828,
				12.356380462646484,
				18.163265228271484
			],
			"min":[
				-23.315631866455078,
				-12.356395721435547,
				-14.691035270690918
			],
			"type":"VEC3"
		},
		{
			"bufferView":70,
			"componentType":5126,
			"count":448,
			"type":"VEC3"
		},
		{
			"bufferView":71,
			"componentType":5126,
			"count":448,
			"type":"VEC2"
		},
		{
			"bufferView":72,
			"componentType":5123,
			"count":1488,
			"type":"SCALAR"
		},
		{
			"bufferView":73,
			"componentType":5126,
			"count":1026,
			"max":[
				39.87932205200195,
				12.74857234954834,
				9.668346405029297
			],
			"min":[
				-39.87932205200195,
				-12.74857234954834,
				-7.948494911193848
			],
			"type":"VEC3"
		},
		{
			"bufferView":74,
			"componentType":5126,
			"count":1026,
			"type":"VEC3"
		},
		{
			"bufferView":75,
			"componentType":5126,
			"count":1026,
			"type":"VEC2"
		},
		{
			"bufferView":76,
			"componentType":5123,
			"count":3168,
			"type":"SCALAR"
		},
		{
			"bufferView":77,
			"componentType":5126,
			"count":120,
			"max":[
				50.624305725097656,
				17.200572967529297,
				-7.003389358520508
			],
			"min":[
				-50.78078079223633,
				-17.065444946289062,
				-8.405556678771973
			],
			"type":"VEC3"
		},
		{
			"bufferView":78,
			"componentType":5126,
			"count":120,
			"type":"VEC3"
		},
		{
			"bufferView":79,
			"componentType":5126,
			"count":120,
			"type":"VEC2"
		},
		{
			"bufferView":80,
			"componentType":5123,
			"count":324,
			"type":"SCALAR"
		},
		{
			"bufferView":81,
			"componentType":5126,
			"count":1360,
			"max":[
				25.896663665771484,
				15.869288444519043,
				25.896663665771484
			],
			"min":[
				-25.896663665771484,
				-13.271982192993164,
				-25.896663665771484
			],
			"type":"VEC3"
		},
		{
			"bufferView":82,
			"componentType":5126,
			"count":1360,
			"type":"VEC3"
		},
		{
			"bufferView":83,
			"componentType":5126,
			"count":1360,
			"type":"VEC2"
		},
		{
			"bufferView":84,
			"componentType":5123,
			"count":3744,
			"type":"SCALAR"
		},
		{
			"bufferView":85,
			"componentType":5126,
			"count":1360,
			"max":[
				25.896663665771484,
				15.869288444519043,
				25.896663665771484
			],
			"min":[
				-25.896663665771484,
				-13.271982192993164,
				-25.896663665771484
			],
			"type":"VEC3"
		},
		{
			"bufferView":86,
			"componentType":5126,
			"count":1360,
			"type":"VEC3"
		},
		{
			"bufferView":87,
			"componentType":5126,
			"count":1360,
			"type":"VEC2"
		},
		{
			"bufferView":88,
			"componentType":5123,
			"count":3744,
			"type":"SCALAR"
		},
		{
			"bufferView":89,
			"componentType":5126,
			"count":160,
			"max":[
				258.4854431152344,
				12.48493766784668,
				148.94366455078125
			],
			"min":[
				-263.8991394042969,
				-12.385614395141602,
				-124.58990478515625
			],
			"type":"VEC3"
		},
		{
			"bufferView":90,
			"componentType":5126,
			"count":160,
			"type":"VEC3"
		},
		{
			"bufferView":91,
			"componentType":5126,
			"count":160,
			"type":"VEC2"
		},
		{
			"bufferView":92,
			"componentType":5123,
			"count":408,
			"type":"SCALAR"
		},
		{
			"bufferView":93,
			"componentType":5126,
			"count":146,
			"max":[
				4.218694686889648,
				12.869908332824707,
				4.035871505737305
			],
			"min":[
				-4.218694686889648,
				-12.335271835327148,
				-4.401517391204834
			],
			"type":"VEC3"
		},
		{
			"bufferView":94,
			"componentType":5126,
			"count":146,
			"type":"VEC3"
		},
		{
			"bufferView":95,
			"componentType":5126,
			"count":146,
			"type":"VEC2"
		},
		{
			"bufferView":96,
			"componentType":5123,
			"count":288,
			"type":"SCALAR"
		},
		{
			"bufferView":97,
			"componentType":5126,
			"count":2406,
			"max":[
				47.50052261352539,
				11.97709846496582,
				52.48646545410156
			],
			"min":[
				-58.321537017822266,
				-12.511735916137695,
				-52.689208984375
			],
			"type":"VEC3"
		},
		{
			"bufferView":98,
			"componentType":5126,
			"count":2406,
			"type":"VEC3"
		},
		{
			"bufferView":99,
			"componentType":5126,
			"count":2406,
			"type":"VEC2"
		},
		{
			"bufferView":100,
			"componentType":5123,
			"count":7008,
			"type":"SCALAR"
		},
		{
			"bufferView":101,
			"componentType":5126,
			"count":496,
			"max":[
				94.8629150390625,
				12.413748741149902,
				93.42173767089844
			],
			"min":[
				-94.8629150390625,
				-12.463410377502441,
				-93.42173767089844
			],
			"type":"VEC3"
		},
		{
			"bufferView":102,
			"componentType":5126,
			"count":496,
			"type":"VEC3"
		},
		{
			"bufferView":103,
			"componentType":5126,
			"count":496,
			"type":"VEC2"
		},
		{
			"bufferView":104,
			"componentType":5123,
			"count":1512,
			"type":"SCALAR"
		},
		{
			"bufferView":105,
			"componentType":5126,
			"count":146,
			"max":[
				4.218694686889648,
				12.869908332824707,
				4.117323398590088
			],
			"min":[
				-4.218694686889648,
				-12.335271835327148,
				-4.320065975189209
			],
			"type":"VEC3"
		},
		{
			"bufferView":106,
			"componentType":5126,
			"count":146,
			"type":"VEC3"
		},
		{
			"bufferView":107,
			"componentType":5126,
			"count":146,
			"type":"VEC2"
		},
		{
			"bufferView":108,
			"componentType":5126,
			"count":2406,
			"max":[
				58.321537017822266,
				11.97709846496582,
				52.48646545410156
			],
			"min":[
				-47.50052261352539,
				-12.511735916137695,
				-52.689208984375
			],
			"type":"VEC3"
		},
		{
			"bufferView":109,
			"componentType":5126,
			"count":2406,
			"type":"VEC3"
		},
		{
			"bufferView":110,
			"componentType":5126,
			"count":2406,
			"type":"VEC2"
		},
		{
			"bufferView":111,
			"componentType":5123,
			"count":7008,
			"type":"SCALAR"
		},
		{
			"bufferView":112,
			"componentType":5126,
			"count":496,
			"max":[
				74.52619171142578,
				12.413748741149902,
				73.39397430419922
			],
			"min":[
				-74.52619171142578,
				-12.463410377502441,
				-73.39397430419922
			],
			"type":"VEC3"
		},
		{
			"bufferView":113,
			"componentType":5126,
			"count":496,
			"type":"VEC3"
		},
		{
			"bufferView":114,
			"componentType":5126,
			"count":496,
			"type":"VEC2"
		},
		{
			"bufferView":115,
			"componentType":5123,
			"count":1512,
			"type":"SCALAR"
		},
		{
			"bufferView":116,
			"componentType":5126,
			"count":1542,
			"max":[
				12.220897674560547,
				12.220897674560547,
				12.26609992980957
			],
			"min":[
				-12.220897674560547,
				-12.220897674560547,
				-9.282341957092285
			],
			"type":"VEC3"
		},
		{
			"bufferView":117,
			"componentType":5126,
			"count":1542,
			"type":"VEC3"
		},
		{
			"bufferView":118,
			"componentType":5126,
			"count":1542,
			"type":"VEC2"
		},
		{
			"bufferView":119,
			"componentType":5123,
			"count":5280,
			"type":"SCALAR"
		},
		{
			"bufferView":120,
			"componentType":5126,
			"count":1542,
			"max":[
				12.220897674560547,
				12.220897674560547,
				12.26609992980957
			],
			"min":[
				-12.220897674560547,
				-12.220897674560547,
				-9.282341957092285
			],
			"type":"VEC3"
		},
		{
			"bufferView":121,
			"componentType":5126,
			"count":1542,
			"type":"VEC3"
		},
		{
			"bufferView":122,
			"componentType":5126,
			"count":1542,
			"type":"VEC2"
		},
		{
			"bufferView":123,
			"componentType":5126,
			"count":1542,
			"max":[
				10.150328636169434,
				10.150328636169434,
				10.187871932983398
			],
			"min":[
				-10.150328636169434,
				-10.150328636169434,
				-7.7096476554870605
			],
			"type":"VEC3"
		},
		{
			"bufferView":124,
			"componentType":5126,
			"count":1542,
			"type":"VEC3"
		},
		{
			"bufferView":125,
			"componentType":5126,
			"count":1542,
			"type":"VEC2"
		},
		{
			"bufferView":126,
			"componentType":5126,
			"count":1542,
			"max":[
				12.220897674560547,
				12.220897674560547,
				12.26609992980957
			],
			"min":[
				-12.220897674560547,
				-12.220897674560547,
				-9.282341957092285
			],
			"type":"VEC3"
		},
		{
			"bufferView":127,
			"componentType":5126,
			"count":1542,
			"type":"VEC3"
		},
		{
			"bufferView":128,
			"componentType":5126,
			"count":1542,
			"type":"VEC2"
		},
		{
			"bufferView":129,
			"componentType":5126,
			"count":1542,
			"max":[
				12.220897674560547,
				12.220897674560547,
				12.26609992980957
			],
			"min":[
				-12.220897674560547,
				-12.220897674560547,
				-9.282341957092285
			],
			"type":"VEC3"
		},
		{
			"bufferView":130,
			"componentType":5126,
			"count":1542,
			"type":"VEC3"
		},
		{
			"bufferView":131,
			"componentType":5126,
			"count":1542,
			"type":"VEC2"
		},
		{
			"bufferView":132,
			"componentType":5126,
			"count":1980,
			"max":[
				323.8673095703125,
				52.2900276184082,
				361.9366455078125
			],
			"min":[
				-323.8673095703125,
				-52.2899055480957,
				-44.84231185913086
			],
			"type":"VEC3"
		},
		{
			"bufferView":133,
			"componentType":5126,
			"count":1980,
			"type":"VEC3"
		},
		{
			"bufferView":134,
			"componentType":5126,
			"count":1980,
			"type":"VEC2"
		},
		{
			"bufferView":135,
			"componentType":5123,
			"count":7080,
			"type":"SCALAR"
		}
	],
	"bufferViews":[
		{
			"buffer":0,
			"byteLength":83760,
			"byteOffset":0,
			"target":34962
		},
		{
			"buffer":0,
			"byteLength":83760,
			"byteOffset":83760,
			"target":34962
		},
		{
			"buffer":0,
			"byteLength":55840,
			"byteOffset":167520,
			"target":34962
		},
		{
			"buffer":0,
			"byteLength":52872,
			"byteOffset":223360,
			"target":34963
		},
		{
			"buffer":0,
			"byteLength":8856,
			"byteOffset":276232,
			"target":34962
		},
		{
			"buffer":0,
			"byteLength":8856,
			"byteOffset":285088,
			"target":34962
		},
		{
			"buffer":0,
			"byteLength":5904,
			"byteOffset":293944,
			"target":34962
		},
		{
			"buffer":0,
			"byteLength":4800,
			"byteOffset":299848,
			"target":34963
		},
		{
			"buffer":0,
			"byteLength":48,
			"byteOffset":304648,
			"target":34962
		},
		{
			"buffer":0,
			"byteLength":48,
			"byteOffset":304696,
			"target":34962
		},
		{
			"buffer":0,
			"byteLength":32,
			"byteOffset":304744,
			"target":34962
		},
		{
			"buffer":0,
			"byteLength":12,
			"byteOffset":304776,
			"target":34963
		},
		{
			"buffer":0,
			"byteLength":48,
			"byteOffset":304788,
			"target":34962
		},
		{
			"buffer":0,
			"byteLength":48,
			"byteOffset":304836,
			"target":34962
		},
		{
			"buffer":0,
			"byteLength":32,
			"byteOffset":304884,
			"target":34962
		},
		{
			"buffer":0,
			"byteLength":48,
			"byteOffset":304916,
			"target":34962
		},
		{
			"buffer":0,
			"byteLength":48,
			"byteOffset":304964,
			"target":34962
		},
		{
			"buffer":0,
			"byteLength":32,
			"byteOffset":305012,
			"target":34962
		},
		{
			"buffer":0,
			"byteLength":48,
			"byteOffset":305044,
			"target":34962
		},
		{
			"buffer":0,
			"byteLength":48,
			"byteOffset":305092,
			"target":34962
		},
		{
			"buffer":0,
			"byteLength":32,
			"byteOffset":305140,
			"target":34962
		},
		{
			"buffer":0,
			"byteLength":48,
			"byteOffset":305172,
			"target":34962
		},
		{
			"buffer":0,
			"byteLength":48,
			"byteOffset":305220,
			"target":34962
		},
		{
			"buffer":0,
			"byteLength":32,
			"byteOffset":305268,
			"target":34962
		},
		{
			"buffer":0,
			"byteLength":48,
			"byteOffset":305300,
			"target":34962
		},
		{
			"buffer":0,
			"byteLength":48,
			"byteOffset":305348,
			"target":34962
		},
		{
			"buffer":0,
			"byteLength":32,
			"byteOffset":305396,
			"target":34962
		},
		{
			"buffer":0,
			"byteLength":240276,
			"byteOffset":305428,
			"target":34962
		},
		{
			"buffer":0,
			"byteLength":240276,
			"byteOffset":545704,
			"target":34962
		},
		{
			"buffer":0,
			"byteLength":160184,
			"byteOffset":785980,
			"target":34962
		},
		{
			"buffer":0,
			"byteLength":137952,
			"byteOffset":946164,
			"target":34963
		},
		{
			"buffer":0,
			"byteLength":3048,
			"byteOffset":1084116,
			"target":34962
		},
		{
			"buffer":0,
			"byteLength":3048,
			"byteOffset":1087164,
			"target":34962
		},
		{
			"buffer":0,
			"byteLength":2032,
			"byteOffset":1090212,
			"target":34962
		},
		{
			"buffer":0,
			"byteLength":2580,
			"byteOffset":1092244,
			"target":34963
		},
		{
			"buffer":0,
			"byteLength":5472,
			"byteOffset":1094824,
			"target":34962
		},
		{
			"buffer":0,
			"byteLength":5472,
			"byteOffset":1100296,
			"target":34962
		},
		{
			"buffer":0,
			"byteLength":3648,
			"byteOffset":1105768,
			"target":34962
		},
		{
			"buffer":0,
			"byteLength":2688,
			"byteOffset":1109416,
			"target":34963
		},
		{
			"buffer":0,
			"byteLength":2808,
			"byteOffset":1112104,
			"target":34962
		},
		{
			"buffer":0,
			"byteLength":2808,
			"byteOffset":1114912,
			"target":34962
		},
		{
			"buffer":0,
			"byteLength":1872,
			"byteOffset":1117720,
			"target":34962
		},
		{
			"buffer":0,
			"byteLength":1344,
			"byteOffset":1119592,
			"target":34963
		},
		{
			"buffer":0,
			"byteLength":13584,
			"byteOffset":1120936,
			"target":34962
		},
		{
			"buffer":0,
			"byteLength":13584,
			"byteOffset":1134520,
			"target":34962
		},
		{
			"buffer":0,
			"byteLength":9056,
			"byteOffset":1148104,
			"target":34962
		},
		{
			"buffer":0,
			"byteLength":6864,
			"byteOffset":1157160,
			"target":34963
		},
		{
			"buffer":0,
			"byteLength":5376,
			"byteOffset":1164024,
			"target":34962
		},
		{
			"buffer":0,
			"byteLength":5376,
			"byteOffset":1169400,
			"target":34962
		},
		{
			"buffer":0,
			"byteLength":3584,
			"byteOffset":1174776,
			"target":34962
		},
		{
			"buffer":0,
			"byteLength":2976,
			"byteOffset":1178360,
			"target":34963
		},
		{
			"buffer":0,
			"byteLength":230424,
			"byteOffset":1181336,
			"target":34962
		},
		{
			"buffer":0,
			"byteLength":230424,
			"byteOffset":1411760,
			"target":34962
		},
		{
			"buffer":0,
			"byteLength":153616,
			"byteOffset":1642184,
			"target":34962
		},
		{
			"buffer":0,
			"byteLength":133392,
			"byteOffset":1795800,
			"target":34963
		},
		{
			"buffer":0,
			"byteLength":3048,
			"byteOffset":1929192,
			"target":34962
		},
		{
			"buffer":0,
			"byteLength":3048,
			"byteOffset":1932240,
			"target":34962
		},
		{
			"buffer":0,
			"byteLength":2032,
			"byteOffset":1935288,
			"target":34962
		},
		{
			"buffer":0,
			"byteLength":5472,
			"byteOffset":1937320,
			"target":34962
		},
		{
			"buffer":0,
			"byteLength":5472,
			"byteOffset":1942792,
			"target":34962
		},
		{
			"buffer":0,
			"byteLength":3648,
			"byteOffset":1948264,
			"target":34962
		},
		{
			"buffer":0,
			"byteLength":2808,
			"byteOffset":1951912,
			"target":34962
		},
		{
			"buffer":0,
			"byteLength":2808,
			"byteOffset":1954720,
			"target":34962
		},
		{
			"buffer":0,
			"byteLength":1872,
			"byteOffset":1957528,
			"target":34962
		},
		{
			"buffer":0,
			"byteLength":1344,
			"byteOffset":1959400,
			"target":34963
		},
		{
			"buffer":0,
			"byteLength":13584,
			"byteOffset":1960744,
			"target":34962
		},
		{
			"buffer":0,
			"byteLength":13584,
			"byteOffset":1974328,
			"target":34962
		},
		{
			"buffer":0,
			"byteLength":9056,
			"byteOffset":1987912,
			"target":34962
		},
		{
			"buffer":0,
			"byteLength":6864,
			"byteOffset":1996968,
			"target":34963
		},
		{
			"buffer":0,
			"byteLength":5376,
			"byteOffset":2003832,
			"target":34962
		},
		{
			"buffer":0,
			"byteLength":5376,
			"byteOffset":2009208,
			"target":34962
		},
		{
			"buffer":0,
			"byteLength":3584,
			"byteOffset":2014584,
			"target":34962
		},
		{
			"buffer":0,
			"byteLength":2976,
			"byteOffset":2018168,
			"target":34963
		},
		{
			"buffer":0,
			"byteLength":12312,
			"byteOffset":2021144,
			"target":34962
		},
		{
			"buffer":0,
			"byteLength":12312,
			"byteOffset":2033456,
			"target":34962
		},
		{
			"buffer":0,
			"byteLength":8208,
			"byteOffset":2045768,
			"target":34962
		},
		{
			"buffer":0,
			"byteLength":6336,
			"byteOffset":2053976,
			"target":34963
		},
		{
			"buffer":0,
			"byteLength":1440,
			"byteOffset":2060312,
			"target":34962
		},
		{
			"buffer":0,
			"byteLength":1440,
			"byteOffset":2061752,
			"target":34962
		},
		{
			"buffer":0,
			"byteLength":960,
			"byteOffset":2063192,
			"target":34962
		},
		{
			"buffer":0,
			"byteLength":648,
			"byteOffset":2064152,
			"target":34963
		},
		{
			"buffer":0,
			"byteLength":16320,
			"byteOffset":2064800,
			"target":34962
		},
		{
			"buffer":0,
			"byteLength":16320,
			"byteOffset":2081120,
			"target":34962
		},
		{
			"buffer":0,
			"byteLength":10880,
			"byteOffset":2097440,
			"target":34962
		},
		{
			"buffer":0,
			"byteLength":7488,
			"byteOffset":2108320,
			"target":34963
		},
		{
			"buffer":0,
			"byteLength":16320,
			"byteOffset":2115808,
			"target":34962
		},
		{
			"buffer":0,
			"byteLength":16320,
			"byteOffset":2132128,
			"target":34962
		},
		{
			"buffer":0,
			"byteLength":10880,
			"byteOffset":2148448,
			"target":34962
		},
		{
			"buffer":0,
			"byteLength":7488,
			"byteOffset":2159328,
			"target":34963
		},
		{
			"buffer":0,
			"byteLength":1920,
			"byteOffset":2166816,
			"target":34962
		},
		{
			"buffer":0,
			"byteLength":1920,
			"byteOffset":2168736,
			"target":34962
		},
		{
			"buffer":0,
			"byteLength":1280,
			"byteOffset":2170656,
			"target":34962
		},
		{
			"buffer":0,
			"byteLength":816,
			"byteOffset":2171936,
			"target":34963
		},
		{
			"buffer":0,
			"byteLength":1752,
			"byteOffset":2172752,
			"target":34962
		},
		{
			"buffer":0,
			"byteLength":1752,
			"byteOffset":2174504,
			"target":34962
		},
		{
			"buffer":0,
			"byteLength":1168,
			"byteOffset":2176256,
			"target":34962
		},
		{
			"buffer":0,
			"byteLength":576,
			"byteOffset":2177424,
			"target":34963
		},
		{
			"buffer":0,
			"byteLength":28872,
			"byteOffset":2178000,
			"target":34962
		},
		{
			"buffer":0,
			"byteLength":28872,
			"byteOffset":2206872,
			"target":34962
		},
		{
			"buffer":0,
			"byteLength":19248,
			"byteOffset":2235744,
			"target":34962
		},
		{
			"buffer":0,
			"byteLength":14016,
			"byteOffset":2254992,
			"target":34963
		},
		{
			"buffer":0,
			"byteLength":5952,
			"byteOffset":2269008,
			"target":34962
		},
		{
			"buffer":0,
			"byteLength":5952,
			"byteOffset":2274960,
			"target":34962
		},
		{
			"buffer":0,
			"byteLength":3968,
			"byteOffset":2280912,
			"target":34962
		},
		{
			"buffer":0,
			"byteLength":3024,
			"byteOffset":2284880,
			"target":34963
		},
		{
			"buffer":0,
			"byteLength":1752,
			"byteOffset":2287904,
			"target":34962
		},
		{
			"buffer":0,
			"byteLength":1752,
			"byteOffset":2289656,
			"target":34962
		},
		{
			"buffer":0,
			"byteLength":1168,
			"byteOffset":2291408,
			"target":34962
		},
		{
			"buffer":0,
			"byteLength":28872,
			"byteOffset":2292576,
			"target":34962
		},
		{
			"buffer":0,
			"byteLength":28872,
			"byteOffset":2321448,
			"target":34962
		},
		{
			"buffer":0,
			"byteLength":19248,
			"byteOffset":2350320,
			"target":34962
		},
		{
			"buffer":0,
			"byteLength":14016,
			"byteOffset":2369568,
			"target":34963
		},
		{
			"buffer":0,
			"byteLength":5952,
			"byteOffset":2383584,
			"target":34962
		},
		{
			"buffer":0,
			"byteLength":5952,
			"byteOffset":2389536,
			"target":34962
		},
		{
			"buffer":0,
			"byteLength":3968,
			"byteOffset":2395488,
			"target":34962
		},
		{
			"buffer":0,
			"byteLength":3024,
			"byteOffset":2399456,
			"target":34963
		},
		{
			"buffer":0,
			"byteLength":18504,
			"byteOffset":2402480,
			"target":34962
		},
		{
			"buffer":0,
			"byteLength":18504,
			"byteOffset":2420984,
			"target":34962
		},
		{
			"buffer":0,
			"byteLength":12336,
			"byteOffset":2439488,
			"target":34962
		},
		{
			"buffer":0,
			"byteLength":10560,
			"byteOffset":2451824,
			"target":34963
		},
		{
			"buffer":0,
			"byteLength":18504,
			"byteOffset":2462384,
			"target":34962
		},
		{
			"buffer":0,
			"byteLength":18504,
			"byteOffset":2480888,
			"target":34962
		},
		{
			"buffer":0,
			"byteLength":12336,
			"byteOffset":2499392,
			"target":34962
		},
		{
			"buffer":0,
			"byteLength":18504,
			"byteOffset":2511728,
			"target":34962
		},
		{
			"buffer":0,
			"byteLength":18504,
			"byteOffset":2530232,
			"target":34962
		},
		{
			"buffer":0,
			"byteLength":12336,
			"byteOffset":2548736,
			"target":34962
		},
		{
			"buffer":0,
			"byteLength":18504,
			"byteOffset":2561072,
			"target":34962
		},
		{
			"buffer":0,
			"byteLength":18504,
			"byteOffset":2579576,
			"target":34962
		},
		{
			"buffer":0,
			"byteLength":12336,
			"byteOffset":2598080,
			"target":34962
		},
		{
			"buffer":0,
			"byteLength":18504,
			"byteOffset":2610416,
			"target":34962
		},
		{
			"buffer":0,
			"byteLength":18504,
			"byteOffset":2628920,
			"target":34962
		},
		{
			"buffer":0,
			"byteLength":12336,
			"byteOffset":2647424,
			"target":34962
		},
		{
			"buffer":0,
			"byteLength":23760,
			"byteOffset":2659760,
			"target":34962
		},
		{
			"buffer":0,
			"byteLength":23760,
			"byteOffset":2683520,
			"target":34962
		},
		{
			"buffer":0,
			"byteLength":15840,
			"byteOffset":2707280,
			"target":34962
		},
		{
			"buffer":0,
			"byteLength":14160,
			"byteOffset":2723120,
			"target":34963
		}
	],
	"samplers":[
		{
			"magFilter":9729,
			"minFilter":9987,
			"wrapS":33071,
			"wrapT":33071
		}
	],
	"buffers":[
		{
			"byteLength":2737280,
			"uri":"tape.bin"
		}
	]
}
