<svg width="110" height="17" viewBox="0 0 110 17" fill="none" xmlns="http://www.w3.org/2000/svg">
<path d="M6.608 16.288C4.624 16.288 3.064 15.752 1.928 14.68C0.792 13.608 0.224 12.144 0.224 10.288C0.224 9.088 0.472 8.04 0.968 7.144C1.464 6.248 2.152 5.552 3.032 5.056C3.912 4.544 4.936 4.288 6.104 4.288C7.24 4.288 8.224 4.528 9.056 5.008C9.904 5.472 10.56 6.128 11.024 6.976C11.488 7.824 11.72 8.816 11.72 9.952C11.72 10.16 11.712 10.376 11.696 10.6C11.68 10.808 11.648 11.032 11.6 11.272H3.104C3.408 13.016 4.584 13.888 6.632 13.888C7.832 13.888 9.008 13.52 10.16 12.784L11.216 14.872C10.48 15.368 9.744 15.728 9.008 15.952C8.272 16.176 7.472 16.288 6.608 16.288ZM3.128 9.136H8.936C8.664 7.504 7.712 6.688 6.08 6.688C4.464 6.688 3.48 7.504 3.128 9.136ZM19.7859 16.288C17.6419 16.288 15.8099 15.816 14.2899 14.872L15.3219 12.664C15.9459 13.064 16.6419 13.368 17.4099 13.576C18.1939 13.784 19.0099 13.888 19.8579 13.888C21.5059 13.888 22.3299 13.496 22.3299 12.712C22.3299 12.392 22.2419 12.16 22.0659 12.016C21.8899 11.872 21.5699 11.776 21.1059 11.728L18.4659 11.416C17.2499 11.272 16.3459 10.936 15.7539 10.408C15.1779 9.864 14.8899 9.088 14.8899 8.08C14.8899 6.864 15.3219 5.928 16.1859 5.272C17.0499 4.616 18.3059 4.288 19.9539 4.288C21.7459 4.288 23.3859 4.672 24.8739 5.44L23.9619 7.696C22.7939 7.024 21.4419 6.688 19.9059 6.688C18.4499 6.688 17.7219 7.072 17.7219 7.84C17.7219 8.144 17.8099 8.368 17.9859 8.512C18.1779 8.656 18.4979 8.752 18.9459 8.8L21.5859 9.112C22.8019 9.256 23.6979 9.6 24.2739 10.144C24.8659 10.672 25.1619 11.448 25.1619 12.472C25.1619 13.688 24.6979 14.632 23.7699 15.304C22.8579 15.96 21.5299 16.288 19.7859 16.288ZM35.7238 16.288C32.7798 16.288 31.3078 14.824 31.3078 11.896V7.12H27.9718V4.576H31.3078V1.336L34.1398 0.111999V4.576H38.4598V7.12H34.1398V11.464C34.1398 12.28 34.2918 12.856 34.5958 13.192C34.9158 13.528 35.4598 13.696 36.2278 13.696C37.1718 13.696 38.0838 13.424 38.9637 12.88L39.6838 15.28C38.5318 15.952 37.2118 16.288 35.7238 16.288ZM47.7256 16.288C47.1336 16.288 46.6296 16.088 46.2136 15.688C45.8136 15.272 45.6136 14.768 45.6136 14.176C45.6136 13.568 45.8136 13.064 46.2136 12.664C46.6296 12.264 47.1336 12.064 47.7256 12.064C48.3176 12.064 48.8136 12.264 49.2136 12.664C49.6296 13.064 49.8376 13.568 49.8376 14.176C49.8376 14.768 49.6296 15.272 49.2136 15.688C48.8136 16.088 48.3176 16.288 47.7256 16.288ZM56.2235 16V14.008C56.2235 12.168 56.5595 10.752 57.2315 9.76C57.9195 8.752 59.0635 8.016 60.6635 7.552L62.6075 6.976C63.0875 6.832 63.4715 6.64 63.7595 6.4C64.0475 6.144 64.1915 5.744 64.1915 5.2C64.1915 3.888 63.3195 3.232 61.5755 3.232C60.0555 3.232 58.7515 3.744 57.6635 4.768L56.1515 2.512C56.9195 1.872 57.7355 1.392 58.5995 1.072C59.4635 0.751999 60.4555 0.592 61.5755 0.592C63.3675 0.592 64.7355 1 65.6795 1.816C66.6235 2.616 67.0955 3.776 67.0955 5.296C67.0955 6.464 66.7995 7.4 66.2075 8.104C65.6315 8.792 64.7035 9.32 63.4235 9.688L61.4795 10.264C60.9675 10.408 60.5435 10.592 60.2075 10.816C59.8875 11.024 59.6395 11.328 59.4635 11.728C59.3035 12.128 59.1995 12.688 59.1515 13.408H67.0955V16H56.2235ZM75.5694 16.288C73.6654 16.288 72.2014 15.624 71.1774 14.296C70.1694 12.952 69.6654 11 69.6654 8.44C69.6654 5.88 70.1694 3.936 71.1774 2.608C72.2014 1.264 73.6654 0.592 75.5694 0.592C77.4734 0.592 78.9294 1.264 79.9374 2.608C80.9614 3.936 81.4734 5.88 81.4734 8.44C81.4734 11 80.9614 12.952 79.9374 14.296C78.9294 15.624 77.4734 16.288 75.5694 16.288ZM72.6414 9.904L77.8254 4.528C77.3294 3.664 76.5774 3.232 75.5694 3.232C73.5694 3.232 72.5694 4.968 72.5694 8.44C72.5694 8.952 72.5934 9.44 72.6414 9.904ZM75.5694 13.648C77.5694 13.648 78.5694 11.912 78.5694 8.44C78.5694 7.912 78.5454 7.424 78.4974 6.976L73.3134 12.352C73.8254 13.216 74.5774 13.648 75.5694 13.648ZM84.0673 16V14.008C84.0673 12.168 84.4033 10.752 85.0753 9.76C85.7633 8.752 86.9073 8.016 88.5073 7.552L90.4513 6.976C90.9313 6.832 91.3153 6.64 91.6033 6.4C91.8913 6.144 92.0353 5.744 92.0353 5.2C92.0353 3.888 91.1633 3.232 89.4193 3.232C87.8993 3.232 86.5953 3.744 85.5073 4.768L83.9953 2.512C84.7633 1.872 85.5793 1.392 86.4433 1.072C87.3073 0.751999 88.2993 0.592 89.4193 0.592C91.2113 0.592 92.5793 1 93.5233 1.816C94.4673 2.616 94.9393 3.776 94.9393 5.296C94.9393 6.464 94.6433 7.4 94.0513 8.104C93.4753 8.792 92.5473 9.32 91.2673 9.688L89.3233 10.264C88.8113 10.408 88.3873 10.592 88.0513 10.816C87.7313 11.024 87.4833 11.328 87.3073 11.728C87.1473 12.128 87.0433 12.688 86.9953 13.408H94.9393V16H84.0673ZM104.541 16V12.736H97.1491V10.528L103.125 0.879999H106.317L100.581 10.144H104.541V6.592L107.421 4.912V10.144H109.725V12.736H107.421V16H104.541Z" fill="white"/>
</svg>
