<svg width="317" height="52" viewBox="0 0 317 52" fill="none" xmlns="http://www.w3.org/2000/svg">
<path d="M37.944 34V16.96H40.776V27.424L45.6 22.576H49.248L44.472 27.16L49.368 34H45.888L42.432 29.128L40.776 30.736V34H37.944ZM51.8659 34V22.576H53.9539L54.1939 23.56C54.8019 23.112 55.4019 22.792 55.9939 22.6C56.6019 22.392 57.2419 22.288 57.9139 22.288C59.2579 22.288 60.2899 22.672 61.0099 23.44C61.7299 24.192 62.0899 25.272 62.0899 26.68V34H59.2579V27.112C59.2579 26.296 59.0979 25.72 58.7779 25.384C58.4739 25.048 57.9379 24.88 57.1699 24.88C56.7219 24.88 56.2979 24.936 55.8979 25.048C55.5139 25.144 55.1139 25.304 54.6979 25.528V34H51.8659ZM70.8038 34.288C69.6518 34.288 68.6358 34.04 67.7558 33.544C66.8758 33.032 66.1878 32.328 65.6918 31.432C65.1958 30.52 64.9478 29.472 64.9478 28.288C64.9478 27.088 65.1958 26.04 65.6918 25.144C66.1878 24.248 66.8758 23.552 67.7558 23.056C68.6358 22.544 69.6518 22.288 70.8038 22.288C71.9558 22.288 72.9718 22.544 73.8518 23.056C74.7318 23.552 75.4198 24.248 75.9158 25.144C76.4118 26.04 76.6598 27.088 76.6598 28.288C76.6598 29.472 76.4118 30.52 75.9158 31.432C75.4198 32.328 74.7318 33.032 73.8518 33.544C72.9718 34.04 71.9558 34.288 70.8038 34.288ZM70.8038 31.696C71.7318 31.696 72.4598 31.4 72.9878 30.808C73.5158 30.2 73.7798 29.36 73.7798 28.288C73.7798 27.216 73.5158 26.384 72.9878 25.792C72.4598 25.184 71.7318 24.88 70.8038 24.88C69.8758 24.88 69.1478 25.184 68.6198 25.792C68.0918 26.384 67.8278 27.216 67.8278 28.288C67.8278 29.36 68.0918 30.2 68.6198 30.808C69.1478 31.4 69.8758 31.696 70.8038 31.696ZM80.4536 34L77.8136 22.576H80.3336L82.1096 30.52L83.8376 23.896H85.7576L87.4856 30.52L89.2616 22.576H91.6376L88.9976 34H86.4056L84.7256 27.52L83.0456 34H80.4536ZM101.072 34.288C98.1275 34.288 96.6555 32.824 96.6555 29.896V19.528H92.2395V16.96H99.4875V29.464C99.4875 30.28 99.6395 30.856 99.9435 31.192C100.264 31.528 100.808 31.696 101.576 31.696C102.52 31.696 103.432 31.424 104.312 30.88L105.032 33.28C103.88 33.952 102.56 34.288 101.072 34.288ZM113.217 34.288C111.233 34.288 109.673 33.752 108.537 32.68C107.401 31.608 106.833 30.144 106.833 28.288C106.833 27.088 107.081 26.04 107.577 25.144C108.073 24.248 108.761 23.552 109.641 23.056C110.521 22.544 111.545 22.288 112.713 22.288C113.849 22.288 114.833 22.528 115.665 23.008C116.513 23.472 117.169 24.128 117.633 24.976C118.097 25.824 118.329 26.816 118.329 27.952C118.329 28.16 118.321 28.376 118.305 28.6C118.289 28.808 118.257 29.032 118.209 29.272H109.713C110.017 31.016 111.193 31.888 113.241 31.888C114.441 31.888 115.617 31.52 116.769 30.784L117.825 32.872C117.089 33.368 116.353 33.728 115.617 33.952C114.881 34.176 114.081 34.288 113.217 34.288ZM109.737 27.136H115.545C115.273 25.504 114.321 24.688 112.689 24.688C111.073 24.688 110.089 25.504 109.737 27.136ZM125.675 34.288C124.171 34.288 122.971 33.752 122.075 32.68C121.195 31.592 120.755 30.128 120.755 28.288C120.755 26.448 121.195 24.992 122.075 23.92C122.971 22.832 124.171 22.288 125.675 22.288C126.203 22.288 126.723 22.368 127.235 22.528C127.763 22.672 128.283 22.904 128.795 23.224V16.96H131.627V34H129.539L129.299 33.04C128.115 33.872 126.907 34.288 125.675 34.288ZM126.395 31.696C127.211 31.696 128.011 31.48 128.795 31.048V25.528C128.011 25.096 127.211 24.88 126.395 24.88C124.539 24.88 123.611 26.016 123.611 28.288C123.611 30.56 124.539 31.696 126.395 31.696ZM139.981 39.328C139.117 39.328 138.285 39.224 137.485 39.016C136.701 38.824 135.925 38.504 135.157 38.056L136.069 35.728C136.629 36.064 137.229 36.312 137.869 36.472C138.509 36.648 139.149 36.736 139.789 36.736C140.797 36.736 141.533 36.528 141.997 36.112C142.477 35.712 142.717 35.096 142.717 34.264V33.112C142.205 33.432 141.685 33.672 141.157 33.832C140.645 33.976 140.125 34.048 139.597 34.048C138.605 34.048 137.733 33.8 136.981 33.304C136.245 32.808 135.677 32.12 135.277 31.24C134.877 30.36 134.677 29.336 134.677 28.168C134.677 27 134.877 25.976 135.277 25.096C135.677 24.216 136.245 23.528 136.981 23.032C137.733 22.536 138.605 22.288 139.597 22.288C140.829 22.288 142.037 22.704 143.221 23.536L143.461 22.576H145.549V34.456C145.549 36.04 145.069 37.248 144.109 38.08C143.165 38.912 141.789 39.328 139.981 39.328ZM140.317 31.456C141.133 31.456 141.933 31.24 142.717 30.808V25.528C141.933 25.096 141.133 24.88 140.317 24.88C139.389 24.88 138.693 25.168 138.229 25.744C137.765 26.304 137.533 27.112 137.533 28.168C137.533 29.224 137.765 30.04 138.229 30.616C138.693 31.176 139.389 31.456 140.317 31.456ZM154.983 34.288C152.999 34.288 151.439 33.752 150.303 32.68C149.167 31.608 148.599 30.144 148.599 28.288C148.599 27.088 148.847 26.04 149.343 25.144C149.839 24.248 150.527 23.552 151.407 23.056C152.287 22.544 153.311 22.288 154.479 22.288C155.615 22.288 156.599 22.528 157.431 23.008C158.279 23.472 158.935 24.128 159.399 24.976C159.863 25.824 160.095 26.816 160.095 27.952C160.095 28.16 160.087 28.376 160.071 28.6C160.055 28.808 160.023 29.032 159.975 29.272H151.479C151.783 31.016 152.959 31.888 155.007 31.888C156.207 31.888 157.383 31.52 158.535 30.784L159.591 32.872C158.855 33.368 158.119 33.728 157.383 33.952C156.647 34.176 155.847 34.288 154.983 34.288ZM151.503 27.136H157.311C157.039 25.504 156.087 24.688 154.455 24.688C152.839 24.688 151.855 25.504 151.503 27.136ZM180.763 34V25.12H176.347V22.576H183.595V31.456H188.011V34H180.763ZM181.939 20.512C181.395 20.512 180.939 20.328 180.571 19.96C180.203 19.592 180.019 19.136 180.019 18.592C180.019 18.048 180.203 17.592 180.571 17.224C180.939 16.856 181.395 16.672 181.939 16.672C182.483 16.672 182.939 16.856 183.307 17.224C183.675 17.592 183.859 18.048 183.859 18.592C183.859 19.136 183.675 19.592 183.307 19.96C182.939 20.328 182.483 20.512 181.939 20.512ZM196.005 34.288C193.861 34.288 192.029 33.816 190.509 32.872L191.541 30.664C192.165 31.064 192.861 31.368 193.629 31.576C194.413 31.784 195.229 31.888 196.077 31.888C197.725 31.888 198.549 31.496 198.549 30.712C198.549 30.392 198.461 30.16 198.285 30.016C198.109 29.872 197.789 29.776 197.325 29.728L194.685 29.416C193.469 29.272 192.565 28.936 191.973 28.408C191.397 27.864 191.109 27.088 191.109 26.08C191.109 24.864 191.541 23.928 192.405 23.272C193.269 22.616 194.525 22.288 196.173 22.288C197.965 22.288 199.605 22.672 201.093 23.44L200.181 25.696C199.013 25.024 197.661 24.688 196.125 24.688C194.669 24.688 193.941 25.072 193.941 25.84C193.941 26.144 194.029 26.368 194.205 26.512C194.397 26.656 194.717 26.752 195.165 26.8L197.805 27.112C199.021 27.256 199.917 27.6 200.493 28.144C201.085 28.672 201.381 29.448 201.381 30.472C201.381 31.688 200.917 32.632 199.989 33.304C199.077 33.96 197.749 34.288 196.005 34.288ZM218.808 39.04V22.576H220.896L221.136 23.536C222.32 22.704 223.528 22.288 224.76 22.288C226.264 22.288 227.456 22.832 228.336 23.92C229.232 24.992 229.68 26.448 229.68 28.288C229.68 30.128 229.232 31.592 228.336 32.68C227.456 33.752 226.264 34.288 224.76 34.288C224.232 34.288 223.704 34.208 223.176 34.048C222.664 33.904 222.152 33.672 221.64 33.352V39.04H218.808ZM224.04 31.696C225.896 31.696 226.824 30.56 226.824 28.288C226.824 26.016 225.896 24.88 224.04 24.88C223.24 24.88 222.44 25.096 221.64 25.528V31.048C222.44 31.48 223.24 31.696 224.04 31.696ZM237.866 34.288C236.714 34.288 235.698 34.04 234.818 33.544C233.938 33.032 233.25 32.328 232.754 31.432C232.258 30.52 232.01 29.472 232.01 28.288C232.01 27.088 232.258 26.04 232.754 25.144C233.25 24.248 233.938 23.552 234.818 23.056C235.698 22.544 236.714 22.288 237.866 22.288C239.018 22.288 240.034 22.544 240.914 23.056C241.794 23.552 242.482 24.248 242.978 25.144C243.474 26.04 243.722 27.088 243.722 28.288C243.722 29.472 243.474 30.52 242.978 31.432C242.482 32.328 241.794 33.032 240.914 33.544C240.034 34.04 239.018 34.288 237.866 34.288ZM237.866 31.696C238.794 31.696 239.522 31.4 240.05 30.808C240.578 30.2 240.842 29.36 240.842 28.288C240.842 27.216 240.578 26.384 240.05 25.792C239.522 25.184 238.794 24.88 237.866 24.88C236.938 24.88 236.21 25.184 235.682 25.792C235.154 26.384 234.89 27.216 234.89 28.288C234.89 29.36 235.154 30.2 235.682 30.808C236.21 31.4 236.938 31.696 237.866 31.696ZM247.516 34L244.876 22.576H247.396L249.172 30.52L250.9 23.896H252.82L254.548 30.52L256.324 22.576H258.7L256.06 34H253.468L251.788 27.52L250.108 34H247.516ZM266.358 34.288C264.374 34.288 262.814 33.752 261.678 32.68C260.542 31.608 259.974 30.144 259.974 28.288C259.974 27.088 260.222 26.04 260.718 25.144C261.214 24.248 261.902 23.552 262.782 23.056C263.662 22.544 264.686 22.288 265.854 22.288C266.99 22.288 267.974 22.528 268.806 23.008C269.654 23.472 270.31 24.128 270.774 24.976C271.238 25.824 271.47 26.816 271.47 27.952C271.47 28.16 271.462 28.376 271.446 28.6C271.43 28.808 271.398 29.032 271.35 29.272H262.854C263.158 31.016 264.334 31.888 266.382 31.888C267.582 31.888 268.758 31.52 269.91 30.784L270.966 32.872C270.23 33.368 269.494 33.728 268.758 33.952C268.022 34.176 267.222 34.288 266.358 34.288ZM262.878 27.136H268.686C268.414 25.504 267.462 24.688 265.83 24.688C264.214 24.688 263.23 25.504 262.878 27.136ZM275.288 34V22.576H277.496L277.784 24.16C278.376 23.504 279.016 23.032 279.704 22.744C280.392 22.44 281.168 22.288 282.032 22.288C283.2 22.288 284.208 22.592 285.056 23.2L284 25.648C283.648 25.392 283.288 25.208 282.92 25.096C282.568 24.968 282.184 24.904 281.768 24.904C280.408 24.904 279.192 25.56 278.12 26.872V34H275.288Z" fill="white"/>
<path d="M316 26C316 27.3514 315.166 28.8473 313.154 30.4597C311.157 32.0605 308.151 33.6491 304.183 35.188C296.257 38.2618 284.73 41.0497 270.415 43.398C241.8 48.0919 202.232 51 158.5 51C114.768 51 75.2001 48.0919 46.5854 43.398C32.2701 41.0497 20.743 38.2618 12.8173 35.188C8.84931 33.6491 5.84263 32.0605 3.84563 30.4597C1.83429 28.8473 1 27.3514 1 26C1 24.6486 1.83429 23.1527 3.84563 21.5403C5.84263 19.9395 8.84931 18.3509 12.8173 16.812C20.743 13.7382 32.2701 10.9503 46.5854 8.60204C75.2001 3.90815 114.768 1 158.5 1C202.232 1 241.8 3.90815 270.415 8.60204C284.73 10.9503 296.257 13.7382 304.183 16.812C308.151 18.3509 311.157 19.9395 313.154 21.5403C315.166 23.1527 316 24.6486 316 26Z" stroke="white" stroke-width="2"/>
</svg>
