<svg width="175" height="68" viewBox="0 0 175 68" fill="none" xmlns="http://www.w3.org/2000/svg">
<path d="M14.4 67.576C12.768 67.576 11.424 67.032 10.368 65.944C9.344 64.856 8.832 63.528 8.832 61.96C8.832 60.392 9.344 59.064 10.368 57.976C11.424 56.856 12.768 56.296 14.4 56.296C16.064 56.296 17.408 56.856 18.432 57.976C19.456 59.064 19.968 60.392 19.968 61.96C19.968 63.528 19.456 64.856 18.432 65.944C17.408 67.032 16.064 67.576 14.4 67.576ZM32.8613 67L28.9733 43.192H35.7893L37.2773 54.232C37.4373 55.384 37.5653 56.552 37.6613 57.736C37.7893 58.888 37.9173 60.072 38.0453 61.288H38.1893C38.3493 60.072 38.5093 58.872 38.6693 57.688C38.8613 56.504 39.0693 55.352 39.2933 54.232L40.7812 46.36H45.9173L47.4533 54.232C47.6773 55.384 47.8853 56.552 48.0773 57.736C48.3013 58.888 48.4933 60.072 48.6533 61.288H48.8453C49.0053 60.072 49.1173 58.888 49.1813 57.736C49.2773 56.552 49.3893 55.384 49.5173 54.232L50.8613 43.192H57.3893L53.7413 67H45.4373L44.1413 59.272C44.0133 58.216 43.8693 57.112 43.7093 55.96C43.5813 54.808 43.4373 53.56 43.2773 52.216H43.0853C42.9893 53.208 42.8773 54.264 42.7493 55.384C42.6213 56.472 42.4613 57.768 42.2693 59.272L41.0213 67H32.8613ZM71.9625 67.576C69.8825 67.576 67.9145 67.096 66.0585 66.136C64.2025 65.144 62.6985 63.72 61.5465 61.864C60.3945 59.976 59.8185 57.72 59.8185 55.096C59.8185 52.472 60.3945 50.232 61.5465 48.376C62.6985 46.488 64.2025 45.064 66.0585 44.104C67.9145 43.112 69.8825 42.616 71.9625 42.616C74.0425 42.616 76.0105 43.112 77.8665 44.104C79.7225 45.064 81.2265 46.488 82.3785 48.376C83.5305 50.232 84.1065 52.472 84.1065 55.096C84.1065 57.72 83.5305 59.976 82.3785 61.864C81.2265 63.72 79.7225 65.144 77.8665 66.136C76.0105 67.096 74.0425 67.576 71.9625 67.576ZM71.9625 61.864C73.0505 61.864 73.9465 61.592 74.6505 61.048C75.3865 60.504 75.9305 59.72 76.2825 58.696C76.6665 57.672 76.8585 56.472 76.8585 55.096C76.8585 53.72 76.6665 52.52 76.2825 51.496C75.9305 50.472 75.3865 49.688 74.6505 49.144C73.9465 48.6 73.0505 48.328 71.9625 48.328C70.8745 48.328 69.9625 48.6 69.2265 49.144C68.5225 49.688 67.9785 50.472 67.5945 51.496C67.2425 52.52 67.0665 53.72 67.0665 55.096C67.0665 56.472 67.2425 57.672 67.5945 58.696C67.9785 59.72 68.5225 60.504 69.2265 61.048C69.9625 61.592 70.8745 61.864 71.9625 61.864ZM91.9118 67V43.192H97.6718L98.2478 48.376H98.3918C99.5758 46.424 101 44.984 102.664 44.056C104.36 43.096 106.152 42.616 108.04 42.616C109.096 42.616 109.944 42.696 110.584 42.856C111.256 43.016 111.944 43.256 112.648 43.576L111.208 49.48C110.472 49.256 109.8 49.096 109.192 49C108.616 48.872 107.88 48.808 106.984 48.808C105.512 48.808 104.056 49.24 102.616 50.104C101.208 50.968 99.9918 52.472 98.9678 54.616V67H91.9118ZM118.773 67V33.352H125.829V52.792H126.021L134.757 43.192H142.485L125.829 61V67H118.773ZM135.573 67L128.661 56.2L132.693 51.832L143.205 67H135.573ZM158.114 67.576C156.002 67.576 153.906 67.224 151.826 66.52C149.746 65.784 147.954 64.92 146.45 63.928L149.474 59.512C150.914 60.44 152.434 61.144 154.034 61.624C155.666 62.104 157.346 62.344 159.074 62.344C160.386 62.344 161.346 62.152 161.954 61.768C162.562 61.352 162.866 60.872 162.866 60.328C162.866 59.976 162.77 59.688 162.578 59.464C162.418 59.208 162.114 58.984 161.666 58.792C161.25 58.568 160.658 58.36 159.89 58.168C159.154 57.976 158.194 57.752 157.01 57.496C153.778 56.792 151.458 55.832 150.05 54.616C148.642 53.4 147.938 51.88 147.938 50.056C147.938 47.816 148.914 46.024 150.866 44.68C152.818 43.304 155.49 42.616 158.882 42.616C161.026 42.616 162.962 42.968 164.69 43.672C166.45 44.344 167.954 45.08 169.202 45.88L166.034 50.104C164.85 49.368 163.586 48.808 162.242 48.424C160.898 48.04 159.57 47.848 158.258 47.848C157.522 47.848 156.914 47.928 156.434 48.088C155.954 48.216 155.586 48.44 155.33 48.76C155.074 49.048 154.946 49.368 154.946 49.72C154.946 50.36 155.362 50.84 156.194 51.16C157.026 51.448 158.45 51.816 160.466 52.264C162.898 52.808 164.802 53.432 166.178 54.136C167.554 54.84 168.498 55.656 169.01 56.584C169.554 57.48 169.826 58.584 169.826 59.896C169.826 61.336 169.378 62.632 168.482 63.784C167.618 64.936 166.306 65.864 164.546 66.568C162.818 67.24 160.674 67.576 158.114 67.576Z" fill="white"/>
<path d="M86.192 31.384C84.1867 31.384 82.5653 30.648 81.328 29.176C80.112 27.6827 79.504 25.6453 79.504 23.064C79.504 21.336 79.824 19.8533 80.464 18.616C81.1253 17.3787 81.9787 16.4293 83.024 15.768C84.0693 15.0853 85.1573 14.744 86.288 14.744C87.1627 14.744 87.92 14.8933 88.56 15.192C89.2 15.4907 89.776 15.9067 90.288 16.44H90.416L90.192 13.976V8.568H94.896V31H91.056L90.704 29.368H90.608C90.032 29.944 89.3493 30.424 88.56 30.808C87.792 31.192 87.0027 31.384 86.192 31.384ZM87.408 27.544C87.9413 27.544 88.432 27.4373 88.88 27.224C89.3493 26.9893 89.7867 26.6053 90.192 26.072V19.64C89.7653 19.256 89.328 18.9893 88.88 18.84C88.4533 18.6693 88.0053 18.584 87.536 18.584C86.96 18.584 86.4267 18.744 85.936 19.064C85.4453 19.384 85.0507 19.8747 84.752 20.536C84.4747 21.176 84.336 21.9973 84.336 23C84.336 24.5573 84.6027 25.7093 85.136 26.456C85.6693 27.1813 86.4267 27.544 87.408 27.544ZM107.748 31.384C106.105 31.384 104.612 31.064 103.268 30.424C101.945 29.7627 100.889 28.8133 100.1 27.576C99.3315 26.3173 98.9475 24.8133 98.9475 23.064C98.9475 21.336 99.3422 19.8533 100.132 18.616C100.921 17.3573 101.945 16.3973 103.204 15.736C104.462 15.0747 105.796 14.744 107.204 14.744C108.846 14.744 110.222 15.0853 111.332 15.768C112.441 16.4293 113.273 17.336 113.828 18.488C114.404 19.6187 114.692 20.9093 114.692 22.36C114.692 22.7867 114.66 23.2027 114.596 23.608C114.553 23.992 114.51 24.28 114.468 24.472H102.436V21.304H111.3L110.564 22.2C110.564 20.92 110.286 19.96 109.732 19.32C109.198 18.6587 108.409 18.328 107.364 18.328C106.596 18.328 105.924 18.4987 105.348 18.84C104.772 19.1813 104.324 19.704 104.004 20.408C103.684 21.112 103.524 21.9973 103.524 23.064C103.524 24.152 103.716 25.048 104.1 25.752C104.484 26.4347 105.038 26.9467 105.764 27.288C106.489 27.6293 107.364 27.8 108.388 27.8C109.113 27.8 109.796 27.704 110.436 27.512C111.097 27.32 111.78 27.0427 112.484 26.68L114.052 29.528C113.134 30.104 112.121 30.5627 111.012 30.904C109.902 31.224 108.814 31.384 107.748 31.384ZM118.679 31V15.128H122.519L122.871 17.24H122.999C123.682 16.5573 124.46 15.9707 125.335 15.48C126.231 14.9893 127.276 14.744 128.471 14.744C130.263 14.744 131.575 15.32 132.407 16.472C133.239 17.624 133.655 19.2027 133.655 21.208V31H128.951V21.816C128.951 20.7493 128.77 19.9707 128.407 19.48C128.066 18.9893 127.468 18.744 126.615 18.744C125.975 18.744 125.41 18.8933 124.919 19.192C124.45 19.4693 123.938 19.8747 123.383 20.408V31H118.679ZM144.459 31V18.808H138.059V15.128H149.163V31H144.459ZM146.603 12.632C145.707 12.632 144.96 12.376 144.363 11.864C143.765 11.3307 143.467 10.6373 143.467 9.784C143.467 8.90933 143.765 8.20533 144.363 7.672C144.96 7.11733 145.707 6.84 146.603 6.84C147.52 6.84 148.267 7.11733 148.843 7.672C149.44 8.20533 149.739 8.90933 149.739 9.784C149.739 10.6373 149.44 11.3307 148.843 11.864C148.267 12.376 147.52 12.632 146.603 12.632ZM164.222 31.384C162.814 31.384 161.417 31.1493 160.03 30.68C158.643 30.1893 157.449 29.6133 156.446 28.952L158.462 26.008C159.422 26.6267 160.435 27.096 161.502 27.416C162.59 27.736 163.71 27.896 164.862 27.896C165.737 27.896 166.377 27.768 166.782 27.512C167.187 27.2347 167.39 26.9147 167.39 26.552C167.39 26.3173 167.326 26.1253 167.198 25.976C167.091 25.8053 166.889 25.656 166.59 25.528C166.313 25.3787 165.918 25.24 165.406 25.112C164.915 24.984 164.275 24.8347 163.486 24.664C161.331 24.1947 159.785 23.5547 158.846 22.744C157.907 21.9333 157.438 20.92 157.438 19.704C157.438 18.2107 158.089 17.016 159.39 16.12C160.691 15.2027 162.473 14.744 164.734 14.744C166.163 14.744 167.454 14.9787 168.606 15.448C169.779 15.896 170.782 16.3867 171.614 16.92L169.502 19.736C168.713 19.2453 167.87 18.872 166.974 18.616C166.078 18.36 165.193 18.232 164.318 18.232C163.827 18.232 163.422 18.2853 163.102 18.392C162.782 18.4773 162.537 18.6267 162.366 18.84C162.195 19.032 162.11 19.2453 162.11 19.48C162.11 19.9067 162.387 20.2267 162.942 20.44C163.497 20.632 164.446 20.8773 165.79 21.176C167.411 21.5387 168.681 21.9547 169.598 22.424C170.515 22.8933 171.145 23.4373 171.486 24.056C171.849 24.6533 172.03 25.3893 172.03 26.264C172.03 27.224 171.731 28.088 171.134 28.856C170.558 29.624 169.683 30.2427 168.51 30.712C167.358 31.16 165.929 31.384 164.222 31.384Z" fill="white"/>
</svg>
