<svg width="317" height="52" viewBox="0 0 317 52" fill="none" xmlns="http://www.w3.org/2000/svg">
<path d="M42.928 34.288C41.584 34.288 40.552 33.912 39.832 33.16C39.112 32.392 38.752 31.304 38.752 29.896V22.576H41.584V29.464C41.584 30.28 41.736 30.856 42.04 31.192C42.36 31.528 42.904 31.696 43.672 31.696C44.12 31.696 44.544 31.64 44.944 31.528C45.344 31.416 45.744 31.256 46.144 31.048V22.576H48.976V34H46.888L46.648 33.016C46.056 33.464 45.456 33.792 44.848 34C44.24 34.192 43.6 34.288 42.928 34.288ZM57.7859 34.288C55.6419 34.288 53.8099 33.816 52.2899 32.872L53.3219 30.664C53.9459 31.064 54.6419 31.368 55.4099 31.576C56.1939 31.784 57.0099 31.888 57.8579 31.888C59.5059 31.888 60.3299 31.496 60.3299 30.712C60.3299 30.392 60.2419 30.16 60.0659 30.016C59.8899 29.872 59.5699 29.776 59.1059 29.728L56.4659 29.416C55.2499 29.272 54.3459 28.936 53.7539 28.408C53.1779 27.864 52.8899 27.088 52.8899 26.08C52.8899 24.864 53.3219 23.928 54.1859 23.272C55.0499 22.616 56.3059 22.288 57.9539 22.288C59.7459 22.288 61.3859 22.672 62.8739 23.44L61.9619 25.696C60.7939 25.024 59.4419 24.688 57.9059 24.688C56.4499 24.688 55.7219 25.072 55.7219 25.84C55.7219 26.144 55.8099 26.368 55.9859 26.512C56.1779 26.656 56.4979 26.752 56.9459 26.8L59.5859 27.112C60.8019 27.256 61.6979 27.6 62.2739 28.144C62.8659 28.672 63.1619 29.448 63.1619 30.472C63.1619 31.688 62.6979 32.632 61.7699 33.304C60.8579 33.96 59.5299 34.288 57.7859 34.288ZM72.4518 34.288C70.4678 34.288 68.9078 33.752 67.7718 32.68C66.6358 31.608 66.0678 30.144 66.0678 28.288C66.0678 27.088 66.3158 26.04 66.8118 25.144C67.3078 24.248 67.9958 23.552 68.8758 23.056C69.7558 22.544 70.7798 22.288 71.9478 22.288C73.0838 22.288 74.0678 22.528 74.8998 23.008C75.7478 23.472 76.4038 24.128 76.8678 24.976C77.3318 25.824 77.5638 26.816 77.5638 27.952C77.5638 28.16 77.5558 28.376 77.5398 28.6C77.5238 28.808 77.4918 29.032 77.4438 29.272H68.9478C69.2518 31.016 70.4278 31.888 72.4758 31.888C73.6758 31.888 74.8518 31.52 76.0038 30.784L77.0598 32.872C76.3238 33.368 75.5878 33.728 74.8518 33.952C74.1158 34.176 73.3158 34.288 72.4518 34.288ZM68.9718 27.136H74.7798C74.5078 25.504 73.5558 24.688 71.9238 24.688C70.3078 24.688 69.3238 25.504 68.9718 27.136ZM98.2315 34V25.12H93.8155V22.576H101.064V31.456H105.48V34H98.2315ZM99.4075 20.512C98.8635 20.512 98.4075 20.328 98.0395 19.96C97.6715 19.592 97.4875 19.136 97.4875 18.592C97.4875 18.048 97.6715 17.592 98.0395 17.224C98.4075 16.856 98.8635 16.672 99.4075 16.672C99.9515 16.672 100.408 16.856 100.776 17.224C101.144 17.592 101.328 18.048 101.328 18.592C101.328 19.136 101.144 19.592 100.776 19.96C100.408 20.328 99.9515 20.512 99.4075 20.512ZM115.489 34.288C112.545 34.288 111.073 32.824 111.073 29.896V25.12H107.737V22.576H111.073V19.336L113.905 18.112V22.576H118.225V25.12H113.905V29.464C113.905 30.28 114.057 30.856 114.361 31.192C114.681 31.528 115.225 31.696 115.993 31.696C116.937 31.696 117.849 31.424 118.729 30.88L119.449 33.28C118.297 33.952 116.977 34.288 115.489 34.288ZM140.285 33.088V28.456H135.653V26.2H140.285V21.568H142.541V26.2H147.173V28.456H142.541V33.088H140.285ZM169.161 34.288C167.017 34.288 165.185 33.816 163.665 32.872L164.697 30.664C165.321 31.064 166.017 31.368 166.785 31.576C167.569 31.784 168.385 31.888 169.233 31.888C170.881 31.888 171.705 31.496 171.705 30.712C171.705 30.392 171.617 30.16 171.441 30.016C171.265 29.872 170.945 29.776 170.481 29.728L167.841 29.416C166.625 29.272 165.721 28.936 165.129 28.408C164.553 27.864 164.265 27.088 164.265 26.08C164.265 24.864 164.697 23.928 165.561 23.272C166.425 22.616 167.681 22.288 169.329 22.288C171.121 22.288 172.761 22.672 174.249 23.44L173.337 25.696C172.169 25.024 170.817 24.688 169.281 24.688C167.825 24.688 167.097 25.072 167.097 25.84C167.097 26.144 167.185 26.368 167.361 26.512C167.553 26.656 167.873 26.752 168.321 26.8L170.961 27.112C172.177 27.256 173.073 27.6 173.649 28.144C174.241 28.672 174.537 29.448 174.537 30.472C174.537 31.688 174.073 32.632 173.145 33.304C172.233 33.96 170.905 34.288 169.161 34.288ZM178.163 34V16.96H180.995V23.224C181.987 22.6 183.059 22.288 184.211 22.288C185.555 22.288 186.587 22.672 187.307 23.44C188.027 24.192 188.387 25.272 188.387 26.68V34H185.555V27.112C185.555 26.296 185.395 25.72 185.075 25.384C184.771 25.048 184.235 24.88 183.467 24.88C183.019 24.88 182.595 24.936 182.195 25.048C181.811 25.144 181.411 25.304 180.995 25.528V34H178.163ZM195.877 34.288C194.485 34.288 193.397 33.968 192.613 33.328C191.845 32.672 191.461 31.76 191.461 30.592C191.461 29.472 191.829 28.616 192.565 28.024C193.317 27.432 194.397 27.136 195.805 27.136H199.381V26.92C199.381 26.12 199.189 25.552 198.805 25.216C198.421 24.864 197.781 24.688 196.885 24.688C195.477 24.688 194.165 25.04 192.949 25.744L192.109 23.464C193.597 22.68 195.293 22.288 197.197 22.288C198.925 22.288 200.189 22.648 200.989 23.368C201.805 24.088 202.213 25.216 202.213 26.752V34H200.125L199.885 33.016C199.261 33.464 198.621 33.792 197.965 34C197.325 34.192 196.629 34.288 195.877 34.288ZM196.477 31.888C197.565 31.888 198.533 31.648 199.381 31.168V29.272H196.069C195.461 29.272 195.021 29.376 194.749 29.584C194.477 29.776 194.341 30.08 194.341 30.496C194.341 30.96 194.509 31.312 194.845 31.552C195.197 31.776 195.741 31.888 196.477 31.888ZM206.679 34V22.576H208.887L209.175 24.16C209.767 23.504 210.407 23.032 211.095 22.744C211.783 22.44 212.559 22.288 213.423 22.288C214.591 22.288 215.599 22.592 216.447 23.2L215.391 25.648C215.039 25.392 214.679 25.208 214.311 25.096C213.959 24.968 213.575 24.904 213.159 24.904C211.799 24.904 210.583 25.56 209.511 26.872V34H206.679ZM225.592 34.288C223.608 34.288 222.048 33.752 220.912 32.68C219.776 31.608 219.208 30.144 219.208 28.288C219.208 27.088 219.456 26.04 219.952 25.144C220.448 24.248 221.136 23.552 222.016 23.056C222.896 22.544 223.92 22.288 225.088 22.288C226.224 22.288 227.208 22.528 228.04 23.008C228.888 23.472 229.544 24.128 230.008 24.976C230.472 25.824 230.704 26.816 230.704 27.952C230.704 28.16 230.696 28.376 230.68 28.6C230.664 28.808 230.632 29.032 230.584 29.272H222.088C222.392 31.016 223.568 31.888 225.616 31.888C226.816 31.888 227.992 31.52 229.144 30.784L230.2 32.872C229.464 33.368 228.728 33.728 227.992 33.952C227.256 34.176 226.456 34.288 225.592 34.288ZM222.112 27.136H227.92C227.648 25.504 226.696 24.688 225.064 24.688C223.448 24.688 222.464 25.504 222.112 27.136ZM251.372 34V25.12H246.956V22.576H254.204V31.456H258.62V34H251.372ZM252.548 20.512C252.004 20.512 251.548 20.328 251.18 19.96C250.812 19.592 250.628 19.136 250.628 18.592C250.628 18.048 250.812 17.592 251.18 17.224C251.548 16.856 252.004 16.672 252.548 16.672C253.092 16.672 253.548 16.856 253.916 17.224C254.284 17.592 254.468 18.048 254.468 18.592C254.468 19.136 254.284 19.592 253.916 19.96C253.548 20.328 253.092 20.512 252.548 20.512ZM268.63 34.288C265.686 34.288 264.214 32.824 264.214 29.896V25.12H260.878V22.576H264.214V19.336L267.046 18.112V22.576H271.366V25.12H267.046V29.464C267.046 30.28 267.198 30.856 267.502 31.192C267.822 31.528 268.366 31.696 269.134 31.696C270.078 31.696 270.99 31.424 271.87 30.88L272.59 33.28C271.438 33.952 270.118 34.288 268.63 34.288ZM280.344 28.432L278.88 20.128V18.4H282.384V20.128L280.92 28.432H280.344ZM280.632 34.288C280.088 34.288 279.632 34.104 279.264 33.736C278.896 33.368 278.712 32.912 278.712 32.368C278.712 31.824 278.896 31.368 279.264 31C279.632 30.632 280.088 30.448 280.632 30.448C281.192 30.448 281.648 30.632 282 31C282.368 31.368 282.552 31.824 282.552 32.368C282.552 32.912 282.368 33.368 282 33.736C281.648 34.104 281.192 34.288 280.632 34.288Z" fill="white"/>
<path d="M316 26C316 27.3514 315.166 28.8473 313.154 30.4597C311.157 32.0605 308.151 33.6491 304.183 35.188C296.257 38.2618 284.73 41.0497 270.415 43.398C241.8 48.0919 202.232 51 158.5 51C114.768 51 75.2001 48.0919 46.5854 43.398C32.2701 41.0497 20.743 38.2618 12.8173 35.188C8.84931 33.6491 5.84263 32.0605 3.84563 30.4597C1.83429 28.8473 1 27.3514 1 26C1 24.6486 1.83429 23.1527 3.84563 21.5403C5.84263 19.9395 8.84931 18.3509 12.8173 16.812C20.743 13.7382 32.2701 10.9503 46.5854 8.60204C75.2001 3.90815 114.768 1 158.5 1C202.232 1 241.8 3.90815 270.415 8.60204C284.73 10.9503 296.257 13.7382 304.183 16.812C308.151 18.3509 311.157 19.9395 313.154 21.5403C315.166 23.1527 316 24.6486 316 26Z" stroke="white" stroke-width="2"/>
</svg>
